<svg xmlns="http://www.w3.org/2000/svg" width="28" height="28" viewBox="0 0 28 28">
    <g fill="none" fill-rule="nonzero">
        <circle cx="14" cy="14" r="14" fill="#3B5998"/>
        <path fill="#FFF" d="M20.811 6.344H7.19a.845.845 0 0 0-.845.845v13.622c0 .467.378.845.845.845h7.334v-5.93h-1.996v-2.31h1.996V11.71c0-1.978 1.208-3.055 2.972-3.055.845 0 1.571.063 1.783.092v2.066l-1.223.001c-.96 0-1.146.456-1.146 1.125v1.475h2.288l-.298 2.312h-1.99v5.93h3.902a.845.845 0 0 0 .845-.846V7.19a.845.845 0 0 0-.845-.845z"/>
    </g>
</svg>
