<svg xmlns="http://www.w3.org/2000/svg" width="80" height="80" viewBox="0 0 80 80">
    <g fill="none" fill-rule="evenodd">
        <path fill="#FFF" d="M67.58 12.301C60.212 4.998 50.416.976 39.995.976c-10.42 0-20.216 4.022-27.584 11.325C5.043 19.605.985 29.315.985 39.643S5.043 59.68 12.41 66.984c7.368 7.303 17.164 11.325 27.584 11.325 10.42 0 20.217-4.022 27.585-11.325 7.368-7.303 11.426-17.013 11.426-27.341S74.948 19.605 67.58 12.3"/>
        <g fill="#4A4A4A">
            <path d="M54.653 40.941c1.01.013 1.723.283 1.949.76.166.352.038.757-.175.975-.359.368-1.618.546-3.135.62.346-.799.666-1.584.957-2.34l.404-.015m2.107-6.381c.145.302.174.527.087.669-.119.195-.515.424-1.258.546.012-.797-.123-1.407-.325-1.898.85.066 1.272.217 1.496.683m2.638 3.471c.035.273-.033.397-.112.49-.304.359-1.322.814-4.44.944l-.044.002c.293-.83.493-1.556.617-2.193.057-.006.113-.01.17-.018.024.001.047.005.07.004 2.602-.117 3.65.099 3.739.771m-6.206 8.237c-.062.465-.556.625-1.656.674.29-.541.567-1.086.832-1.631.323.07.586.172.721.321.045.05.164.18.103.636m-19.39-9.06c-.835.848-1.556 1.58-2.085 2.206-.853 1.01-1.22 1.01-1.217 1.013-.005-.003-.247-.155-.416-1.097-.241-1.348-.516-4.417-.618-7.553.418-.347.797-.68 1.123-.989 3-2.849 3.653-3.501 5.137-5.318.54-.662 1.279-.766 1.699-.53.48.272.564.976.223 1.884-.754 2.01-1.692 3.168-2.878 4.634a51.925 51.925 0 0 0-1.59 2.037.73.73 0 0 0 .163 1.025.744.744 0 0 0 1.033-.162c.218-.297.429-.574.634-.837.588.044 1.313.079 2.131.107-1.07 1.273-2.271 2.495-3.338 3.58m16.896 11.22c1.988-.009 3.722-.192 3.96-1.966.097-.72-.048-1.311-.428-1.76 1.728-.157 2.751-.485 3.26-1.005.68-.697.862-1.75.45-2.62a2.31 2.31 0 0 0-.25-.41c1.377-.237 2.237-.624 2.728-1.201.38-.447.53-.994.446-1.625-.18-1.367-1.337-1.862-2.66-2.02.197-.417.297-1.048-.109-1.892-.703-1.463-2.252-1.515-3.62-1.56l-.177-.007a.762.762 0 0 0-.132-.127c.554-2.388.804-4.258.73-4.988-.098-.992-.652-1.757-1.48-2.048a2.067 2.067 0 0 0-.698-.116c.153-.968.232-1.76.239-2.3.02-1.418-.895-2.924-2.679-3.068-1.278-.101-2.326.598-2.69 1.737-.39-.74-1.107-1.137-1.772-1.258-1.103-.195-2.433.24-2.756 1.323-.351 1.173-1.782 4.747-3.482 8.477-.332.73-.788 1.468-1.315 2.2-.781-.02-1.503-.045-2.132-.075 1.132-1.402 2.114-2.679 2.904-4.784.724-1.93.02-3.16-.878-3.669-1.135-.641-2.642-.27-3.582.88-1.43 1.75-2.068 2.388-5.01 5.183l-.145.134c-.115-2.17-1.58-3.046-2.834-3.128-1.464-.099-2.745.729-2.917 1.884-.062.417-.21 1.144-.396 2.063a158.09 158.09 0 0 0-.842 4.376c-2.316 1.54-4.578 2.942-5.974 3.747a.73.73 0 0 0-.267 1.003.741.741 0 0 0 1.013.265c1.21-.699 2.994-1.794 4.903-3.036a63.807 63.807 0 0 0-.538 4.486c-.326 4.063.814 8.238 1.426 10.482l.06.22c-1.552.443-4.46 1.35-4.598 1.394a.732.732 0 0 0 .222 1.434.74.74 0 0 0 .223-.035c.032-.01 2.823-.88 4.4-1.336-.111.477-.356 1.28-.652 2.25-.243.796-.518 1.699-.813 2.723a.733.733 0 0 0 .604.928.74.74 0 0 0 .819-.524c.292-1.014.566-1.911.807-2.703.409-1.34.68-2.227.754-2.729.05-.34-.063-.78-.397-2.006-.59-2.157-1.685-6.173-1.38-9.98.156-1.932.436-3.908.74-5.718.12-.705.242-1.384.363-2.026.209-1.11.411-2.108.578-2.925.191-.94.342-1.684.41-2.14.048-.325.662-.68 1.352-.634.539.037 1.445.332 1.461 1.902.004.325.01.66.018.999v.001c.077 3.148.355 6.78.66 8.486.087.484.35 1.956 1.486 2.257 1.086.287 2.084-.71 2.74-1.486.493-.583 1.196-1.298 2.01-2.125 1.332-1.353 2.865-2.912 4.136-4.554l.13-.172a21.1 21.1 0 0 0 .356-.482c.044-.06.086-.122.13-.183.517-.738.97-1.49 1.314-2.243 1.726-3.786 3.188-7.445 3.552-8.664.049-.164.522-.393 1.07-.297.427.078.921.36.853 1.267-.085 1.123-.75 7.06-5.497 13.636a.73.73 0 0 0 .17 1.024.745.745 0 0 0 1.034-.17c2.153-2.982 3.505-5.819 4.355-8.199a.728.728 0 0 0 .136-.213c.21-.526.408-1.013.594-1.47.87-2.132 1.498-3.673 1.755-5.402.111-.75.698-.973 1.211-.933.663.056 1.33.564 1.317 1.585-.034 2.496-1.82 11.242-5.833 17.08a.73.73 0 0 0 .194 1.019.744.744 0 0 0 1.029-.193c2.984-4.34 4.761-10.069 5.568-14.035a.575.575 0 0 1 .487-.05c.277.097.46.392.502.808.061.611-.212 2.488-.8 4.908-.113.469-.239.958-.376 1.462-.758 2.789-1.871 6.042-3.315 8.874a.73.73 0 0 0 .553 1.057.742.742 0 0 0 .768-.395c1.51-2.963 2.668-6.324 3.451-9.228.248.43.43.973.404 1.803a5.256 5.256 0 0 1-.007.157v.001a5.806 5.806 0 0 1-.03.333l-.001.005a6.85 6.85 0 0 1-.022.174l-.001.005-.028.183-.001.003a7.634 7.634 0 0 1-.075.394v.004l-.047.207a15.94 15.94 0 0 1-.537 1.768c-.048.135-.1.274-.152.416a65.48 65.48 0 0 1-.268.715l-.015.038a58.71 58.71 0 0 1-1.278 3.066c-.134.297-.273.598-.417.902l-.003.007a42.976 42.976 0 0 1-1.8 3.409l-.053.088c-.135.228-.273.455-.413.68-1.079 1.721-2.31 3.326-3.679 4.563a110.77 110.77 0 0 1-2.903 2.515c-2.303 1.945-3.825 3.23-4.54 5.044a36.664 36.664 0 0 0-1.438 4.53.734.734 0 0 0 .614.893.74.74 0 0 0 .828-.56c.004-.02.506-2.129 1.374-4.328.58-1.471 1.99-2.661 4.122-4.463.865-.73 1.845-1.558 2.94-2.546 1.68-1.518 3.152-3.507 4.42-5.647M36.926 66.809l-15.742-7.021a2.296 2.296 0 0 0-3.02 1.133l-.844 1.851a.731.731 0 0 0 .37.971.743.743 0 0 0 .979-.366l.844-1.852a.809.809 0 0 1 1.063-.4l15.742 7.022a2.636 2.636 0 0 1 1.492 3.069l-.72 2.406a.733.733 0 0 0 .718.915.74.74 0 0 0 .716-.553l.72-2.405a4.098 4.098 0 0 0-2.318-4.77M17.525 52.594L15.25 40.078a2.245 2.245 0 0 0-.972-1.477 2.285 2.285 0 0 0-1.745-.339l-3.175.797a.734.734 0 1 0 .304 1.436l3.174-.797a.805.805 0 0 1 .957.64l2.276 12.516a3.873 3.873 0 0 1-1.73 3.96l-1.164.748a.73.73 0 0 0-.219 1.014.74.74 0 0 0 1.024.217l1.164-.748a5.33 5.33 0 0 0 2.382-5.451M17.381 11.078c.081 0 .163-.025.232-.078l.357-.27c.167-.124.2-.36.075-.525a.38.38 0 0 0-.53-.075c-.123.091-.244.183-.366.276a.373.373 0 0 0-.068.526.379.379 0 0 0 .3.146M15.513 12.606c.089 0 .178-.03.25-.093l.34-.293a.373.373 0 0 0 .04-.53.38.38 0 0 0-.535-.04l-.346.3a.373.373 0 0 0-.034.529c.075.084.18.127.285.127M13.748 14.252a.38.38 0 0 0 .268-.11c.106-.106.212-.21.32-.315a.373.373 0 0 0 .005-.53.381.381 0 0 0-.536-.006l-.326.32a.373.373 0 0 0 .001.531.38.38 0 0 0 .268.11M12.094 16.008a.38.38 0 0 0 .285-.129c.099-.112.198-.223.298-.333a.373.373 0 0 0-.029-.53.38.38 0 0 0-.535.028l-.304.341a.373.373 0 0 0 .036.53.38.38 0 0 0 .249.093M10.328 17.79a.38.38 0 0 0 .531-.07c.092-.118.183-.236.276-.353a.373.373 0 0 0-.064-.527.381.381 0 0 0-.532.064c-.094.119-.188.239-.281.36a.373.373 0 0 0 .07.526M76.58 37.276c.01.148.019.296.027.445a.377.377 0 0 0 .4.354.377.377 0 0 0 .357-.396 37.285 37.285 0 0 0-.029-.454.376.376 0 0 0-.404-.35.377.377 0 0 0-.352.401M23.527 7.265a.38.38 0 0 0 .168-.04l.402-.195a.374.374 0 0 0 .177-.501.38.38 0 0 0-.505-.175c-.138.065-.275.132-.411.2a.374.374 0 0 0-.17.502c.065.132.2.209.339.209M21.397 8.402a.38.38 0 0 0 .19-.051c.129-.075.259-.148.39-.221a.374.374 0 0 0 .142-.512.38.38 0 0 0-.516-.142l-.397.226a.374.374 0 0 0-.137.513.38.38 0 0 0 .328.187M19.345 9.675a.38.38 0 0 0 .211-.064l.375-.246a.374.374 0 0 0 .109-.52.38.38 0 0 0-.524-.108c-.128.083-.256.167-.382.251a.373.373 0 0 0-.103.521.38.38 0 0 0 .314.166M4.757 28.417a.379.379 0 0 0 .48-.236l.146-.423a.375.375 0 0 0-.232-.479.38.38 0 0 0-.483.23l-.15.432c-.066.197.04.41.239.476M74.686 27.981c.049.14.097.281.143.423a.379.379 0 0 0 .72-.235 36.139 36.139 0 0 0-.146-.432.38.38 0 0 0-.717.244M2.996 37.838a.377.377 0 0 0 .402-.351l.03-.445a.378.378 0 1 0-.755-.056c-.011.151-.022.303-.031.454a.377.377 0 0 0 .354.398M3.054 42.64a.377.377 0 0 0 .353-.4c-.01-.148-.019-.297-.027-.445a.375.375 0 0 0-.399-.355.377.377 0 0 0-.357.395c.008.152.017.304.027.455a.377.377 0 0 0 .403.35M4.036 46.95c-.03-.145-.058-.291-.085-.437a.378.378 0 0 0-.745.138c.028.149.057.298.087.446a.378.378 0 0 0 .446.295.375.375 0 0 0 .297-.442M8.938 19.76a.38.38 0 0 0 .525-.105l.252-.37a.373.373 0 0 0-.098-.521.381.381 0 0 0-.527.097c-.086.126-.172.251-.257.378a.373.373 0 0 0 .105.52M3.318 45.027a.376.376 0 0 0 .326-.422c-.02-.147-.038-.294-.056-.442a.379.379 0 0 0-.753.09l.058.45a.378.378 0 0 0 .425.324M3.202 35.445a.378.378 0 0 0 .424-.325l.06-.442a.379.379 0 1 0-.75-.105c-.022.15-.042.301-.062.452a.376.376 0 0 0 .328.42M6.56 23.95a.38.38 0 0 0 .507-.172l.202-.4a.374.374 0 0 0-.167-.504.38.38 0 0 0-.509.165 35.5 35.5 0 0 0-.206.408.374.374 0 0 0 .173.503M7.68 21.816a.379.379 0 0 0 .517-.138c.075-.13.151-.258.228-.386a.374.374 0 0 0-.133-.514.38.38 0 0 0-.519.131c-.078.13-.156.262-.232.394a.374.374 0 0 0 .139.513M3.564 33.07a.38.38 0 0 0 .445-.296c.028-.146.058-.292.089-.437a.376.376 0 0 0-.294-.444.378.378 0 0 0-.448.29c-.031.149-.062.298-.091.447-.04.203.094.4.299.44M5.584 26.153a.382.382 0 0 0 .495-.204c.057-.137.115-.275.174-.412a.374.374 0 0 0-.2-.493.38.38 0 0 0-.496.198l-.179.421a.374.374 0 0 0 .206.49M4.083 30.724a.378.378 0 0 0 .463-.267l.118-.43a.38.38 0 0 0-.73-.201c-.04.146-.081.292-.12.44-.054.2.067.405.269.458M4.583 49.265a36.75 36.75 0 0 1-.114-.431.379.379 0 0 0-.734.186l.116.44a.378.378 0 0 0 .732-.195M2.947 40.24c.21 0 .379-.17.378-.377v-.07l.002-.376a.377.377 0 0 0-.375-.379H2.95a.377.377 0 0 0-.38.372 40.34 40.34 0 0 0-.001.383v.072c0 .207.17.374.379.374M58.241 8.258l.39.225a.38.38 0 0 0 .518-.133.374.374 0 0 0-.133-.514 38.377 38.377 0 0 0-.397-.23.38.38 0 0 0-.517.139.374.374 0 0 0 .14.513M66.168 14.334a.38.38 0 0 0 .535.005.373.373 0 0 0 .005-.531 38.323 38.323 0 0 0-.323-.322.381.381 0 0 0-.536 0 .373.373 0 0 0 .001.532c.107.105.213.21.318.316M62.237 10.892c.12.09.238.182.356.273a.379.379 0 0 0 .532-.064c.129-.163.1-.399-.065-.527a40.71 40.71 0 0 0-.363-.278.38.38 0 0 0-.531.07.373.373 0 0 0 .07.526M60.283 9.51c.125.083.25.166.373.25a.379.379 0 0 0 .527-.098.373.373 0 0 0-.1-.522c-.126-.086-.253-.17-.38-.255a.381.381 0 0 0-.526.105.373.373 0 0 0 .106.52M53.93 6.162c.139.057.278.114.416.173a.38.38 0 0 0 .497-.199.374.374 0 0 0-.2-.492c-.142-.06-.283-.119-.425-.176a.38.38 0 0 0-.495.204.374.374 0 0 0 .206.49M51.677 5.33c.143.047.285.095.427.144a.38.38 0 0 0 .483-.23.375.375 0 0 0-.232-.478c-.145-.05-.29-.1-.437-.149a.38.38 0 0 0-.48.237c-.066.196.041.41.24.475M56.12 7.14c.136.065.27.132.404.199a.378.378 0 0 0 .51-.166.374.374 0 0 0-.168-.504 36.075 36.075 0 0 0-.412-.204.38.38 0 0 0-.507.172.374.374 0 0 0 .174.503M76.663 34.489a.376.376 0 0 0-.325.422c.02.147.039.295.057.442a.378.378 0 0 0 .422.328.376.376 0 0 0 .33-.419l-.058-.45a.377.377 0 0 0-.426-.323M75.39 30.254c.04.143.078.286.115.43a.378.378 0 0 0 .734-.187 36.92 36.92 0 0 0-.118-.44.379.379 0 0 0-.731.197M74.004 26.172a.379.379 0 0 0 .702-.282c-.057-.14-.115-.28-.174-.419a.38.38 0 0 0-.495-.2.374.374 0 0 0-.204.49l.171.411M65.257 25.169a.38.38 0 0 0 .506.175.374.374 0 0 0 .177-.501 37.71 37.71 0 0 0-.202-.408.38.38 0 0 0-.508-.168.374.374 0 0 0-.17.503c.067.133.132.265.197.399M69.295 17.934a.38.38 0 0 0 .53.073c.168-.125.201-.36.075-.526-.092-.12-.184-.241-.278-.36a.38.38 0 0 0-.531-.068.373.373 0 0 0-.068.527c.091.117.182.235.272.354M70.675 19.876a.38.38 0 0 0 .524.108.373.373 0 0 0 .11-.52 38.427 38.427 0 0 0-.255-.379.38.38 0 0 0-.525-.101.373.373 0 0 0-.103.521c.084.123.167.247.249.37M67.79 16.084a.38.38 0 0 0 .535.04.373.373 0 0 0 .04-.53c-.1-.115-.2-.23-.302-.343a.38.38 0 0 0-.534-.033.373.373 0 0 0-.034.53c.1.111.198.223.296.336M49.38 4.647l.434.116a.378.378 0 0 0 .466-.26.375.375 0 0 0-.263-.463l-.444-.119a.375.375 0 1 0-.194.726M35.055 3.77a.41.41 0 0 0 .05-.003 36.2 36.2 0 0 1 .446-.057.376.376 0 0 0 .331-.417.378.378 0 0 0-.421-.328c-.153.018-.304.037-.456.057a.376.376 0 0 0-.325.422.378.378 0 0 0 .375.326M30.306 4.715a.377.377 0 0 0 .1-.013c.144-.04.289-.077.434-.114a.375.375 0 1 0-.188-.727 34.39 34.39 0 0 0-.444.116.375.375 0 0 0 .098.738M25.726 6.27a.38.38 0 0 0 .146-.03c.137-.057.275-.113.414-.168a.374.374 0 0 0 .21-.489.38.38 0 0 0-.493-.208c-.142.056-.283.114-.423.172a.374.374 0 0 0 .146.722M27.99 5.417a.38.38 0 0 0 .122-.02l.427-.142a.375.375 0 0 0 .241-.474.38.38 0 0 0-.478-.24c-.145.048-.29.096-.435.146a.375.375 0 0 0 .122.73M37.466 3.53h.026c.149-.01.299-.02.448-.028a.376.376 0 0 0-.041-.75l-.458.028a.377.377 0 0 0-.353.4c.014.198.18.35.378.35M32.665 4.165c.024 0 .05-.003.075-.008l.442-.085a.376.376 0 1 0-.14-.738c-.151.028-.301.057-.451.087a.375.375 0 0 0 .074.744M75.941 32.567c.03.145.058.291.086.437a.378.378 0 0 0 .443.3.376.376 0 0 0 .302-.439 36.33 36.33 0 0 0-.088-.446.379.379 0 0 0-.743.148M47.042 4.116l.441.088a.378.378 0 0 0 .448-.292.376.376 0 0 0-.294-.443l-.45-.09a.376.376 0 0 0-.145.737M39.888 3.446h.108c.114 0 .229 0 .343.002h.004a.377.377 0 0 0 .378-.372.377.377 0 0 0-.375-.38 38.885 38.885 0 0 0-.35 0h-.11c-.209 0-.378.17-.377.376.001.207.17.374.379.374M42.287 3.516a44.142 44.142 0 0 1 .477.03c.196 0 .363-.15.377-.347a.377.377 0 0 0-.35-.402 35.507 35.507 0 0 0-.458-.03.38.38 0 0 0-.401.351.377.377 0 0 0 .355.398M44.675 3.74c.149.018.297.038.445.058a.378.378 0 0 0 .427-.32.376.376 0 0 0-.322-.424l-.455-.06a.38.38 0 0 0-.424.326.376.376 0 0 0 .329.42M71.923 21.902a.38.38 0 0 0 .516.141.374.374 0 0 0 .143-.511 37.518 37.518 0 0 0-.228-.394.38.38 0 0 0-.518-.135.374.374 0 0 0-.137.513c.076.128.15.257.224.386M58.343 71.27c-.13.074-.26.148-.39.22a.374.374 0 0 0 .187.703.38.38 0 0 0 .185-.048c.133-.074.265-.15.397-.225a.374.374 0 0 0 .139-.513.381.381 0 0 0-.518-.137M62.322 68.628l-.357.27a.373.373 0 0 0-.076.525.38.38 0 0 0 .53.075c.122-.09.244-.182.365-.274a.373.373 0 0 0 .07-.527.381.381 0 0 0-.532-.069M60.376 70.014l-.375.245a.374.374 0 0 0-.11.52.38.38 0 0 0 .524.109l.382-.25a.374.374 0 0 0 .104-.521.381.381 0 0 0-.525-.103M64.175 67.12c-.113.097-.226.195-.34.291a.373.373 0 0 0-.041.53.38.38 0 0 0 .534.04c.116-.098.232-.197.347-.297a.373.373 0 0 0 .034-.53.381.381 0 0 0-.534-.035M64.938 12.133a36.188 36.188 0 0 0-.345-.302.381.381 0 0 0-.534.036.373.373 0 0 0 .036.53c.113.098.226.196.337.295a.38.38 0 0 0 .535-.03.373.373 0 0 0-.03-.53M65.925 65.494c-.106.105-.213.21-.32.313a.373.373 0 0 0-.007.531.38.38 0 0 0 .536.007c.11-.106.218-.213.326-.32a.373.373 0 0 0 0-.53.38.38 0 0 0-.535 0M47.182 75.442c-.147.029-.294.057-.442.084a.376.376 0 1 0 .139.738c.15-.028.3-.056.45-.086a.375.375 0 1 0-.147-.736M67.565 63.76c-.099.11-.198.222-.299.332a.373.373 0 0 0 .028.53.38.38 0 0 0 .535-.027c.103-.113.205-.226.306-.34a.373.373 0 0 0-.035-.53.38.38 0 0 0-.535.034M49.518 74.902c-.145.039-.29.076-.436.113a.375.375 0 1 0 .188.727c.148-.037.296-.076.444-.115a.375.375 0 1 0-.196-.725M56.233 72.391c-.134.066-.268.13-.403.195a.374.374 0 0 0 .164.714c.055 0 .11-.012.164-.037l.41-.199a.374.374 0 0 0 .172-.503.38.38 0 0 0-.507-.17M54.054 73.373l-.415.167a.374.374 0 0 0 .142.724.382.382 0 0 0 .14-.027c.142-.056.283-.113.424-.171.193-.08.285-.3.204-.49a.38.38 0 0 0-.495-.203M51.812 74.211c-.142.048-.284.095-.427.141a.375.375 0 1 0 .235.714c.146-.047.291-.095.436-.144a.375.375 0 0 0 .237-.476.38.38 0 0 0-.481-.235M75.212 51.236a.38.38 0 0 0-.48.235l-.148.423a.375.375 0 0 0 .357.501.379.379 0 0 0 .358-.25l.15-.432a.375.375 0 0 0-.237-.477M76.781 44.211a.379.379 0 0 0-.424.324l-.061.442a.376.376 0 0 0 .375.428.378.378 0 0 0 .374-.322l.063-.45a.376.376 0 0 0-.327-.422M76.414 46.585a.38.38 0 0 0-.445.296l-.09.436a.375.375 0 0 0 .371.454.378.378 0 0 0 .37-.299c.032-.148.062-.297.092-.446a.376.376 0 0 0-.298-.44M75.89 48.93a.38.38 0 0 0-.463.266l-.119.43a.375.375 0 0 0 .365.477.379.379 0 0 0 .365-.274 42.6 42.6 0 0 0 .12-.439.375.375 0 0 0-.267-.46M69.62 61.853a.38.38 0 0 0-.531.069l-.277.352a.373.373 0 0 0 .063.527.38.38 0 0 0 .532-.063c.095-.119.189-.239.282-.359a.373.373 0 0 0-.07-.526M77.423 39.65a.377.377 0 0 0-.379-.374h-.001c-.21 0-.378.169-.378.376v.14c0 .15 0 .298-.002.447a.377.377 0 0 0 .374.38h.005a.377.377 0 0 0 .379-.371l.002-.456v-.142zM76.991 41.819a.376.376 0 0 0-.402.35c-.01.149-.02.297-.032.445a.376.376 0 0 0 .378.404c.196 0 .362-.15.377-.347.012-.15.023-.302.033-.454a.377.377 0 0 0-.354-.398M71.014 59.886a.38.38 0 0 0-.525.103l-.254.37a.373.373 0 0 0 .098.521.379.379 0 0 0 .527-.096c.087-.125.173-.251.258-.377a.373.373 0 0 0-.104-.521M44.816 75.828c-.149.02-.297.038-.447.055a.376.376 0 0 0-.331.418.378.378 0 0 0 .42.328l.456-.056a.376.376 0 1 0-.098-.745M72.276 57.832a.38.38 0 0 0-.518.137c-.075.129-.15.257-.228.385a.373.373 0 0 0 .325.568.38.38 0 0 0 .326-.184c.079-.13.156-.261.233-.393a.374.374 0 0 0-.138-.513M74.38 53.498a.38.38 0 0 0-.495.203 36.6 36.6 0 0 1-.175.413.374.374 0 0 0 .348.523.379.379 0 0 0 .348-.227l.179-.42a.374.374 0 0 0-.205-.492M73.4 55.7a.38.38 0 0 0-.508.17 38 38 0 0 1-.202.4.374.374 0 0 0 .337.546.38.38 0 0 0 .338-.206c.07-.135.139-.27.207-.407a.374.374 0 0 0-.172-.503M19.65 70.036l-.374-.25a.38.38 0 0 0-.526.097.373.373 0 0 0 .098.522l.38.256a.38.38 0 0 0 .526-.104.373.373 0 0 0-.104-.52M13.774 65.201a.381.381 0 0 0-.536-.005.373.373 0 0 0-.005.53c.107.109.214.217.322.324a.379.379 0 0 0 .536 0 .373.373 0 0 0 0-.532c-.107-.105-.212-.21-.317-.317M5.282 51.538c-.048-.14-.096-.281-.142-.422a.38.38 0 0 0-.478-.24.375.375 0 0 0-.242.473c.047.145.096.289.145.432a.379.379 0 0 0 .717-.243M15.506 66.847a.38.38 0 0 0-.535.028.373.373 0 0 0 .029.53c.114.102.228.202.344.302a.38.38 0 0 0 .534-.035.373.373 0 0 0-.035-.53 44.984 44.984 0 0 1-.337-.295M28.247 74.234a34.734 34.734 0 0 1-.427-.146.38.38 0 0 0-.483.23c-.07.195.034.41.231.478l.436.15a.38.38 0 0 0 .48-.236.375.375 0 0 0-.237-.476M25.996 73.397l-.416-.173a.38.38 0 0 0-.497.197.374.374 0 0 0 .2.493c.14.06.282.119.424.177a.38.38 0 0 0 .494-.203.374.374 0 0 0-.205-.49M21.689 71.293c-.13-.074-.26-.15-.39-.226a.381.381 0 0 0-.518.131.374.374 0 0 0 .132.515c.132.078.264.154.397.23a.379.379 0 0 0 .517-.137.374.374 0 0 0-.138-.513M23.807 72.415c-.135-.066-.27-.132-.403-.2a.38.38 0 0 0-.51.165.374.374 0 0 0 .167.504c.136.07.274.137.411.205a.379.379 0 0 0 .507-.171.374.374 0 0 0-.172-.503M17.698 68.65c-.119-.09-.237-.181-.355-.273a.381.381 0 0 0-.532.063c-.13.163-.101.4.064.527.12.094.24.187.362.28a.379.379 0 0 0 .531-.07.373.373 0 0 0-.07-.526M6.926 55.52a.38.38 0 0 0-.506-.176.374.374 0 0 0-.177.5c.066.137.133.273.201.408a.38.38 0 0 0 .508.17.374.374 0 0 0 .17-.504 39.07 39.07 0 0 1-.196-.399M12.155 63.449a.38.38 0 0 0-.534-.04.373.373 0 0 0-.042.528c.1.116.2.23.301.344a.38.38 0 0 0 .535.034.373.373 0 0 0 .034-.53 33.034 33.034 0 0 1-.294-.336M5.96 53.349a.38.38 0 0 0-.492-.208.374.374 0 0 0-.21.488l.173.42a.379.379 0 0 0 .7-.29 34.958 34.958 0 0 1-.17-.41M8.033 57.623a.38.38 0 0 0-.516-.143.374.374 0 0 0-.143.512c.075.132.15.263.227.394a.38.38 0 0 0 .518.136.373.373 0 0 0 .137-.513c-.075-.128-.15-.257-.223-.386M10.653 61.596a.381.381 0 0 0-.53-.074.373.373 0 0 0-.076.525l.278.362a.379.379 0 0 0 .531.068.373.373 0 0 0 .07-.526 36.675 36.675 0 0 1-.273-.355M9.278 59.652a.38.38 0 0 0-.525-.11.373.373 0 0 0-.11.52l.253.38a.38.38 0 0 0 .526.102.373.373 0 0 0 .104-.521 35.983 35.983 0 0 1-.248-.371M35.247 75.837a39.25 39.25 0 0 1-.446-.06.38.38 0 0 0-.428.32.376.376 0 0 0 .322.424c.151.021.303.042.455.061a.378.378 0 0 0 .424-.324.376.376 0 0 0-.327-.42M30.543 74.92c-.145-.038-.29-.077-.434-.117a.375.375 0 1 0-.204.723c.147.041.295.081.443.12a.377.377 0 0 0 .464-.266.375.375 0 0 0-.27-.46M42.429 76.06c-.15.01-.3.02-.45.027a.377.377 0 0 0-.357.395.377.377 0 0 0 .398.355l.459-.027a.377.377 0 0 0 .353-.4.38.38 0 0 0-.403-.35M32.88 75.456a38.167 38.167 0 0 1-.442-.09.376.376 0 0 0-.155.735c.15.032.3.062.45.091a.378.378 0 0 0 .445-.296.376.376 0 0 0-.298-.44M40.032 76.14h-.036c-.139 0-.277-.001-.414-.003h-.005a.377.377 0 0 0-.379.371.377.377 0 0 0 .375.38c.138.002.276.002.419.002h.04c.209 0 .378-.168.378-.375a.377.377 0 0 0-.378-.376M37.634 76.065l-.449-.03a.376.376 0 1 0-.057.748 38.391 38.391 0 0 0 .482.032.377.377 0 0 0 .378-.351.376.376 0 0 0-.354-.399M49.405 71.715l-1.674-4.102c-.093-.226-.435-.135-.4.106l.62 4.383a.758.758 0 1 0 1.454-.387M54.731 64.68c-.148-.194-.454-.019-.358.206l1.743 4.074a.761.761 0 0 0 1.078.358.748.748 0 0 0 .226-1.104L54.73 64.68zM64.317 63.9a.748.748 0 0 0-.07-1.125l-3.519-2.723c-.194-.15-.444.098-.293.29l2.748 3.489a.763.763 0 0 0 1.134.069M10.569 23.815l4.11 1.727c.227.096.404-.208.207-.355l-3.564-2.665a.762.762 0 0 0-1.114.225.75.75 0 0 0 .36 1.068M69.422 55.77l-4.11-1.727c-.227-.095-.404.209-.207.356l3.564 2.664a.762.762 0 0 0 1.114-.224.749.749 0 0 0-.36-1.068M6.772 30.969a.752.752 0 0 0 .627.94l4.422.613c.243.034.335-.305.107-.396l-4.14-1.66a.76.76 0 0 0-1.016.503M73.22 48.617a.752.752 0 0 0-.628-.94l-4.422-.614c-.243-.034-.335.305-.107.397l4.14 1.66a.76.76 0 0 0 1.016-.503M74.391 39.793c0-.452-.399-.802-.85-.747l-4.432.542c-.244.03-.244.38 0 .41l4.431.541a.756.756 0 0 0 .851-.746M72.202 30.467l-4.139 1.66c-.228.09-.136.43.107.395l4.422-.614a.752.752 0 1 0-.39-1.441"/>
            <path d="M65.312 25.542l4.11-1.727a.75.75 0 0 0 .361-1.068.763.763 0 0 0-1.113-.225l-3.565 2.665c-.197.147-.02.45.207.355"/>
            <path d="M67.42 66.975c-7.326 7.26-17.065 11.26-27.424 11.26-10.36 0-20.1-4-27.424-11.26-7.326-7.26-11.36-16.914-11.36-27.182 0-10.268 4.034-19.922 11.36-27.182C19.897 5.35 29.636 1.35 39.996 1.35s20.098 4 27.424 11.26c7.325 7.26 11.359 16.914 11.359 27.182 0 10.268-4.034 19.921-11.36 27.182m.858-55.214C60.722 4.274 50.679.151 39.996.151c-10.684 0-20.727 4.123-28.282 11.61C4.16 19.25 0 29.204 0 39.793c0 10.589 4.16 20.544 11.714 28.031 7.555 7.488 17.598 11.612 28.282 11.612 10.683 0 20.726-4.124 28.28-11.612 7.555-7.487 11.715-17.442 11.715-28.031 0-10.59-4.16-20.544-11.714-28.032"/>
            <path d="M23.641 18.092l-.515-.578-2.14 1.874-3.71-4.161-.67.587 4.225 4.739zM25.291 17.06l-3.537-5.263-.744.492 3.536 5.263zM26.744 16.122l.811-.374-1.235-2.631.86-.397 2.776 1.92.917-.423-3.193-2.172-.007-.017.402-3.495-.893.412-.326 3.085-.86.397-1.133-2.412-.81.374zM31.851 13.968l3.749-.905-.184-.748-2.88.695-.485-1.975 2.22-.536-.183-.749-2.221.537-.473-1.923 2.73-.66-.183-.748-3.6.87zM42.055 12.976c1.597.093 2.531-.857 2.531-.857l-.44-.663s-.816.778-2.016.708c-1.416-.083-2.296-1.282-2.216-2.632.08-1.342 1.073-2.36 2.498-2.277 1.1.064 1.8.795 1.8.795l.481-.636s-.736-.877-2.27-.966c-1.849-.108-3.32 1.206-3.43 3.04-.109 1.85 1.15 3.377 3.062 3.488M47 10.3c.423-1.315 1.749-1.987 2.989-1.595 1.24.391 1.92 1.696 1.498 3.011-.436 1.357-1.764 2.066-3.004 1.674C47.243 13 46.565 11.656 47 10.3m1.232 3.867c1.757.554 3.562-.399 4.132-2.174.557-1.732-.373-3.502-2.13-4.056-1.756-.555-3.556.353-4.113 2.085-.57 1.776.355 3.59 2.111 4.145M53.227 16.188l3.012-5.574-.789-.42-3.012 5.576zM59.373 12.516l-.698-.54-3.928 4.98.705.546L58 14.271c.223-.282.523-.765.523-.765l.015.01s-.122.634-.154 1.053l-.306 4.969.69.535 3.93-4.982-.706-.546-2.554 3.239c-.217.275-.517.758-.517.758l-.015-.01s.122-.634.148-1.046l.319-4.97z"/>
        </g>
    </g>
</svg>
