<svg xmlns="http://www.w3.org/2000/svg" width="274" height="272" viewBox="0 0 274 272">
    <g fill="#FFF" fill-rule="evenodd">
        <path d="M187.185 140.167c3.462.042 5.902.969 6.675 2.602.572 1.206.132 2.592-.596 3.338-1.231 1.26-5.543 1.869-10.74 2.123a209.161 209.161 0 0 0 3.279-8.011l1.382-.052m7.217-21.848c.497 1.033.598 1.804.3 2.29-.408.669-1.764 1.453-4.311 1.871.043-2.73-.42-4.816-1.11-6.499 2.91.228 4.355.744 5.121 2.338m9.034 11.884c.123.935-.11 1.36-.381 1.678-1.043 1.228-4.527 2.786-15.205 3.232l-.154.007c1.005-2.843 1.689-5.326 2.115-7.507.195-.021.387-.036.583-.062.08.004.16.017.241.013 8.909-.402 12.498.338 12.801 2.64m-21.252 28.199c-.214 1.591-1.905 2.14-5.672 2.308a156.856 156.856 0 0 0 2.847-5.585c1.107.241 2.009.591 2.471 1.1.155.17.563.62.354 2.177m-66.41-31.019c-2.86 2.904-5.33 5.413-7.143 7.554-2.923 3.455-4.178 3.46-4.168 3.468-.018-.009-.848-.532-1.425-3.755-.827-4.616-1.769-15.121-2.119-25.857a78.006 78.006 0 0 0 3.85-3.387c10.274-9.754 12.509-11.988 17.593-18.209 1.851-2.265 4.38-2.622 5.817-1.81 1.646.93 1.932 3.34.766 6.447-2.584 6.884-5.794 10.847-9.859 15.865-1.634 2.016-3.486 4.302-5.447 6.973a2.497 2.497 0 0 0 .56 3.51 2.55 2.55 0 0 0 3.54-.555 126.824 126.824 0 0 1 2.17-2.866c2.016.15 4.499.27 7.3.368-3.666 4.357-7.78 8.541-11.435 12.254m57.872 38.416c6.806-.032 12.747-.66 13.563-6.734.331-2.465-.168-4.487-1.467-6.022 5.917-.538 9.422-1.661 11.164-3.443 2.333-2.387 2.953-5.99 1.544-8.966a7.906 7.906 0 0 0-.858-1.406c4.714-.812 7.663-2.136 9.343-4.114 1.299-1.53 1.813-3.4 1.528-5.561-.616-4.682-4.578-6.375-9.114-6.916.676-1.428 1.02-3.59-.37-6.48-2.408-5.009-7.714-5.185-12.396-5.342l-.61-.022a2.608 2.608 0 0 0-.452-.433c1.898-8.175 2.754-14.579 2.504-17.079-.34-3.395-2.237-6.015-5.074-7.009a7.082 7.082 0 0 0-2.39-.398c.525-3.313.795-6.028.82-7.878.066-4.852-3.064-10.006-9.175-10.5-4.378-.347-7.968 2.046-9.21 5.946-1.342-2.532-3.794-3.892-6.073-4.305-3.777-.669-8.332.822-9.44 4.528-1.202 4.016-6.101 16.253-11.924 29.022-1.14 2.497-2.7 5.024-4.506 7.531a319.977 319.977 0 0 1-7.3-.257c3.878-4.798 7.24-9.17 9.944-16.378 2.48-6.607.073-10.82-3.007-12.56-3.887-2.196-9.047-.928-12.268 3.014-4.898 5.992-7.083 8.174-17.162 17.741-.159.152-.324.306-.492.46-.397-7.431-5.415-10.427-9.706-10.71-5.015-.337-9.404 2.497-9.991 6.451-.212 1.428-.718 3.915-1.36 7.064-.808 3.973-1.865 9.173-2.882 14.982-7.933 5.275-15.68 10.071-20.459 12.828a2.5 2.5 0 0 0-.914 3.434 2.55 2.55 0 0 0 3.467.907c4.147-2.393 10.254-6.142 16.793-10.395-.762 4.982-1.427 10.209-1.841 15.36-1.119 13.908 2.785 28.203 4.882 35.883l.207.757c-5.315 1.516-15.275 4.623-15.749 4.77a2.508 2.508 0 0 0-1.656 3.151 2.533 2.533 0 0 0 3.18 1.64c.112-.034 9.668-3.015 15.07-4.575-.38 1.632-1.218 4.38-2.232 7.704a627.152 627.152 0 0 0-2.787 9.322 2.508 2.508 0 0 0 2.071 3.177c1.238.18 2.45-.57 2.803-1.795 1.003-3.471 1.94-6.542 2.766-9.252 1.4-4.59 2.326-7.625 2.58-9.344.174-1.163-.213-2.673-1.359-6.867-2.016-7.386-5.77-21.133-4.722-34.171.531-6.61 1.49-13.377 2.534-19.573a368.3 368.3 0 0 1 1.24-6.936c.715-3.803 1.41-7.217 1.979-10.013.655-3.222 1.173-5.768 1.405-7.326.165-1.114 2.267-2.33 4.631-2.172 1.845.127 4.948 1.136 5.004 6.511.012 1.114.033 2.257.061 3.42l.001.004c.265 10.776 1.215 23.212 2.262 29.054.296 1.656 1.199 6.694 5.089 7.724 3.719.985 7.135-2.432 9.381-5.087 1.69-1.996 4.098-4.442 6.887-7.274 4.56-4.633 9.812-9.968 14.164-15.591.151-.196.297-.392.445-.588a72.244 72.244 0 0 0 1.222-1.652c.149-.208.295-.416.44-.625 1.775-2.53 3.328-5.1 4.505-7.68 5.911-12.961 10.917-25.49 12.165-29.663.167-.56 1.786-1.345 3.664-1.015 1.462.266 3.155 1.233 2.92 4.335-.29 3.846-2.564 24.17-18.826 46.686a2.498 2.498 0 0 0 .586 3.504 2.55 2.55 0 0 0 3.537-.581c7.374-10.21 12.005-19.92 14.918-28.068.19-.213.353-.454.464-.732.72-1.8 1.4-3.467 2.037-5.03 2.978-7.3 5.13-12.575 6.009-18.496.38-2.566 2.393-3.331 4.148-3.193 2.272.19 4.558 1.929 4.511 5.426-.117 8.546-6.231 38.489-19.979 58.473a2.498 2.498 0 0 0 .667 3.49 2.549 2.549 0 0 0 3.523-.66c10.221-14.86 16.308-34.473 19.072-48.05a1.97 1.97 0 0 1 1.665-.173c.95.332 1.577 1.341 1.72 2.769.21 2.09-.727 8.515-2.739 16.802a189.69 189.69 0 0 1-1.288 5.004c-2.596 9.547-6.41 20.684-11.355 30.382a2.502 2.502 0 0 0 1.12 3.375 2.542 2.542 0 0 0 3.406-1.11c5.172-10.143 9.137-21.65 11.82-31.591.848 1.47 1.474 3.33 1.383 6.171-.006.176-.014.355-.025.538v.005a19.869 19.869 0 0 1-.103 1.14l-.002.017a23.45 23.45 0 0 1-.077.596l-.003.017c-.029.204-.06.411-.096.624l-.003.013a26.128 26.128 0 0 1-.12.667c-.041.223-.087.45-.137.681l-.002.012c-.049.231-.102.468-.159.71-.41 1.751-1.006 3.75-1.838 6.054a224.125 224.125 0 0 1-1.44 3.87l-.052.13a197.254 197.254 0 0 1-4.375 10.497 183.13 183.13 0 0 1-1.44 3.112c-.492 1.037-1 2.082-1.526 3.132a147.114 147.114 0 0 1-3.258 6.145c-.45.802-.912 1.6-1.38 2.393l-.18.304c-.464.78-.935 1.556-1.417 2.324-3.694 5.895-7.91 11.391-12.6 15.626-3.687 3.329-7.01 6.134-9.941 8.609-7.89 6.66-13.102 11.06-15.554 17.27-3.11 7.88-4.85 15.202-4.923 15.509a2.512 2.512 0 0 0 2.103 3.056 2.535 2.535 0 0 0 2.835-1.914c.017-.072 1.734-7.291 4.706-14.82 1.989-5.036 6.815-9.11 14.12-15.278 2.963-2.5 6.32-5.334 10.069-8.72 5.754-5.194 10.797-12.006 15.137-19.33M126.47 228.727l-53.916-24.036c-3.928-1.753-8.569-.012-10.342 3.878l-2.89 6.339a2.503 2.503 0 0 0 1.265 3.323c1.275.57 2.778.01 3.354-1.254l2.892-6.34c.624-1.37 2.257-1.981 3.641-1.366l53.916 24.037c4.064 1.811 6.213 6.23 5.11 10.508l-2.467 8.236a2.51 2.51 0 0 0 1.83 3.055 2.532 2.532 0 0 0 3.084-1.813l2.467-8.236c1.712-6.647-1.629-13.515-7.943-16.331M60.024 180.06l-7.796-42.85a7.687 7.687 0 0 0-3.328-5.055 7.828 7.828 0 0 0-5.978-1.16l-10.873 2.727a2.512 2.512 0 0 0-1.962 2.972 2.533 2.533 0 0 0 3 1.944l10.873-2.727a2.758 2.758 0 0 1 2.107.41 2.712 2.712 0 0 1 1.172 1.78l7.795 42.85c.966 5.305-1.361 10.627-5.927 13.559l-3.986 2.559a2.497 2.497 0 0 0-.749 3.473 2.538 2.538 0 0 0 2.13 1.146c.473 0 .95-.13 1.376-.404l3.987-2.56c6.284-4.035 9.487-11.361 8.159-18.663M59.531 37.928c.277 0 .556-.087.792-.268.406-.31.813-.618 1.223-.923a1.279 1.279 0 0 0 .258-1.8 1.305 1.305 0 0 0-1.817-.255c-.419.311-.835.626-1.25.943a1.278 1.278 0 0 0-.234 1.803c.256.328.64.5 1.028.5M53.131 43.159c.305 0 .61-.105.857-.32.386-.337.773-.671 1.162-1.002a1.278 1.278 0 0 0 .138-1.813 1.305 1.305 0 0 0-1.83-.137c-.397.338-.792.68-1.184 1.022a1.277 1.277 0 0 0-.117 1.814c.257.289.615.436.974.436M47.086 48.792a1.3 1.3 0 0 0 .92-.378c.362-.36.726-.719 1.093-1.074.512-.497.52-1.311.02-1.818a1.306 1.306 0 0 0-1.836-.019c-.374.363-.746.73-1.116 1.096a1.278 1.278 0 0 0 .003 1.818 1.3 1.3 0 0 0 .916.375M41.422 54.804a1.3 1.3 0 0 0 .977-.439c.338-.383.678-.764 1.021-1.143a1.277 1.277 0 0 0-.1-1.815 1.305 1.305 0 0 0-1.831.099c-.35.387-.698.776-1.043 1.167a1.277 1.277 0 0 0 .122 1.814c.246.213.55.317.854.317M35.374 60.906a1.3 1.3 0 0 0 .788.265 1.3 1.3 0 0 0 1.031-.505c.313-.404.627-.806.944-1.206a1.277 1.277 0 0 0-.218-1.805 1.306 1.306 0 0 0-1.822.216c-.324.41-.645.82-.964 1.233a1.278 1.278 0 0 0 .241 1.802M262.284 127.619c.035.507.067 1.015.096 1.524a1.292 1.292 0 0 0 1.368 1.21 1.29 1.29 0 0 0 1.223-1.355c-.03-.52-.063-1.038-.099-1.555a1.288 1.288 0 0 0-1.383-1.195 1.29 1.29 0 0 0-1.205 1.37M80.579 24.872c.194 0 .39-.044.576-.135.458-.225.918-.449 1.379-.669a1.28 1.28 0 0 0 .606-1.715 1.302 1.302 0 0 0-1.732-.6c-.47.224-.94.452-1.408.682a1.28 1.28 0 0 0-.584 1.723c.226.452.686.714 1.163.714M73.284 28.764a1.3 1.3 0 0 0 .65-.174c.443-.255.888-.508 1.334-.757a1.28 1.28 0 0 0 .49-1.752 1.304 1.304 0 0 0-1.767-.486c-.455.255-.909.513-1.36.773a1.279 1.279 0 0 0-.47 1.757c.24.41.676.64 1.123.64M66.258 33.123c.249 0 .5-.07.723-.219.425-.283.852-.563 1.281-.841.6-.39.767-1.186.374-1.78a1.304 1.304 0 0 0-1.795-.371c-.438.284-.874.57-1.308.86a1.278 1.278 0 0 0-.353 1.783 1.3 1.3 0 0 0 1.078.568M16.291 97.289a1.297 1.297 0 0 0 1.643-.808c.166-.485.333-.967.504-1.449a1.282 1.282 0 0 0-.795-1.639 1.303 1.303 0 0 0-1.654.788c-.174.491-.345.985-.513 1.48a1.282 1.282 0 0 0 .815 1.628M255.8 95.797c.166.48.33.962.49 1.446a1.297 1.297 0 0 0 1.639.818c.68-.221 1.05-.948.826-1.622-.164-.494-.331-.986-.501-1.478a1.3 1.3 0 0 0-1.649-.798 1.282 1.282 0 0 0-.805 1.634M10.262 129.544l.082.002c.68 0 1.251-.524 1.294-1.205.032-.508.068-1.015.106-1.523a1.289 1.289 0 0 0-1.197-1.377 1.296 1.296 0 0 0-1.39 1.185c-.04.518-.076 1.036-.108 1.555a1.29 1.29 0 0 0 1.213 1.363M10.461 145.98a1.29 1.29 0 0 0 1.209-1.367c-.034-.507-.065-1.015-.093-1.524a1.285 1.285 0 0 0-1.367-1.213 1.29 1.29 0 0 0-1.224 1.352c.028.52.06 1.038.095 1.556a1.292 1.292 0 0 0 1.38 1.197M13.824 160.74c-.1-.499-.198-.998-.293-1.499a1.296 1.296 0 0 0-1.514-1.027 1.286 1.286 0 0 0-1.036 1.5c.097.51.196 1.02.299 1.53a1.294 1.294 0 0 0 1.526 1.007 1.285 1.285 0 0 0 1.018-1.511M30.612 67.65a1.3 1.3 0 0 0 1.8-.356c.285-.425.573-.848.863-1.268a1.278 1.278 0 0 0-.338-1.787 1.306 1.306 0 0 0-1.803.335c-.297.43-.59.86-.881 1.292a1.278 1.278 0 0 0 .36 1.783M11.364 154.154a1.288 1.288 0 0 0 1.117-1.442c-.068-.504-.132-1.01-.193-1.516a1.297 1.297 0 0 0-1.443-1.123 1.288 1.288 0 0 0-1.133 1.43c.062.516.128 1.031.196 1.545a1.293 1.293 0 0 0 1.456 1.106M10.966 121.35a1.294 1.294 0 0 0 1.452-1.111c.065-.506.133-1.01.205-1.513a1.288 1.288 0 0 0-1.104-1.452 1.296 1.296 0 0 0-1.466 1.093c-.072.513-.143 1.029-.21 1.544a1.288 1.288 0 0 0 1.123 1.439M22.47 81.995a1.304 1.304 0 0 0 1.735-.587c.228-.458.458-.914.69-1.369a1.28 1.28 0 0 0-.57-1.727 1.304 1.304 0 0 0-1.744.565c-.237.464-.472.93-.704 1.397a1.28 1.28 0 0 0 .592 1.721M26.304 74.688a1.3 1.3 0 0 0 1.772-.472c.256-.442.516-.882.778-1.32a1.278 1.278 0 0 0-.454-1.761 1.303 1.303 0 0 0-1.778.45c-.267.447-.533.897-.795 1.348a1.279 1.279 0 0 0 .477 1.755M12.207 113.22a1.301 1.301 0 0 0 1.522-1.015c.099-.5.2-.999.305-1.496a1.286 1.286 0 0 0-1.005-1.52 1.294 1.294 0 0 0-1.535.995c-.107.508-.21 1.017-.312 1.528a1.286 1.286 0 0 0 1.025 1.508M19.126 89.54c.162.065.33.096.494.096.51 0 .993-.3 1.2-.795.196-.472.396-.943.598-1.412a1.282 1.282 0 0 0-.684-1.687 1.303 1.303 0 0 0-1.703.678c-.206.479-.41.959-.61 1.44a1.281 1.281 0 0 0 .705 1.68M13.984 105.188a1.296 1.296 0 0 0 1.586-.913c.132-.493.267-.984.404-1.474a1.283 1.283 0 0 0-.902-1.583c-.69-.19-1.405.21-1.597.894-.141.5-.278 1.001-.413 1.504-.183.686.23 1.39.922 1.572M15.696 168.663c-.133-.49-.263-.983-.39-1.476a1.298 1.298 0 0 0-1.579-.927 1.284 1.284 0 0 0-.936 1.564c.13.504.263 1.006.4 1.508a1.296 1.296 0 0 0 1.59.906 1.284 1.284 0 0 0 .915-1.575M10.092 137.764h.003a1.291 1.291 0 0 0 1.295-1.287v-.242c0-.429.002-.858.006-1.286a1.291 1.291 0 0 0-1.284-1.298H10.1c-.71 0-1.29.567-1.298 1.272-.004.437-.006.874-.006 1.312v.246c.001.71.582 1.283 1.297 1.283M199.477 28.27c.446.255.89.511 1.333.77a1.305 1.305 0 0 0 1.777-.452c.365-.61.16-1.4-.456-1.76-.452-.265-.906-.528-1.362-.787a1.304 1.304 0 0 0-1.771.475 1.28 1.28 0 0 0 .479 1.755M226.624 49.075a1.3 1.3 0 0 0 .926.384c.328 0 .656-.122.91-.368a1.277 1.277 0 0 0 .015-1.818c-.367-.37-.736-.738-1.107-1.104a1.306 1.306 0 0 0-1.835.005 1.278 1.278 0 0 0 .005 1.818c.364.359.726.72 1.086 1.083M213.161 37.29c.409.31.815.622 1.22.936a1.303 1.303 0 0 0 1.821-.219 1.278 1.278 0 0 0-.22-1.805c-.414-.32-.83-.638-1.246-.954a1.303 1.303 0 0 0-1.818.241 1.277 1.277 0 0 0 .243 1.802M206.469 32.56c.428.282.854.567 1.279.854.224.152.478.224.73.224.415 0 .822-.196 1.073-.56a1.278 1.278 0 0 0-.34-1.787 122.16 122.16 0 0 0-1.305-.871 1.305 1.305 0 0 0-1.799.358 1.278 1.278 0 0 0 .362 1.782M184.708 21.096c.477.195.953.392 1.427.591a1.302 1.302 0 0 0 1.702-.68 1.281 1.281 0 0 0-.686-1.685 119.97 119.97 0 0 0-1.455-.603 1.3 1.3 0 0 0-1.694.7 1.28 1.28 0 0 0 .706 1.677M176.995 18.245c.488.162.976.328 1.462.497a1.302 1.302 0 0 0 1.653-.788 1.283 1.283 0 0 0-.795-1.638 115.99 115.99 0 0 0-1.495-.508 1.3 1.3 0 0 0-1.642.81 1.282 1.282 0 0 0 .817 1.627M192.213 24.444c.463.224.924.452 1.383.681a1.298 1.298 0 0 0 1.743-.567 1.28 1.28 0 0 0-.572-1.726c-.469-.235-.94-.468-1.411-.697a1.304 1.304 0 0 0-1.737.588 1.28 1.28 0 0 0 .594 1.72M262.57 118.077c-.71.094-1.208.74-1.113 1.444.068.504.134 1.01.196 1.515a1.293 1.293 0 0 0 1.445 1.12 1.288 1.288 0 0 0 1.13-1.431c-.063-.516-.13-1.03-.199-1.545a1.292 1.292 0 0 0-1.459-1.103M258.21 103.577c.135.49.266.982.394 1.475a1.296 1.296 0 0 0 1.581.923 1.285 1.285 0 0 0 .932-1.566c-.131-.503-.265-1.005-.403-1.507a1.298 1.298 0 0 0-1.592-.903c-.691.186-1.1.892-.912 1.578M253.464 89.603a1.297 1.297 0 0 0 1.69.71 1.282 1.282 0 0 0 .715-1.675c-.196-.48-.394-.957-.596-1.434a1.3 1.3 0 0 0-1.697-.689 1.281 1.281 0 0 0-.696 1.682c.197.467.392.936.584 1.406M250.013 82.025a1.299 1.299 0 0 0 1.732.599 1.28 1.28 0 0 0 .605-1.717c-.228-.466-.458-.931-.691-1.395a1.303 1.303 0 0 0-1.74-.577 1.28 1.28 0 0 0-.582 1.724c.228.454.453.908.676 1.366M237.337 61.397a1.3 1.3 0 0 0 1.037.511c.272 0 .546-.084.78-.259a1.278 1.278 0 0 0 .254-1.8c-.315-.414-.632-.826-.952-1.236a1.304 1.304 0 0 0-1.82-.23 1.278 1.278 0 0 0-.233 1.803c.314.402.625.806.934 1.211M242.062 68.046c.249.377.663.58 1.086.58.244 0 .49-.068.71-.21.599-.39.766-1.186.373-1.78-.287-.434-.577-.865-.87-1.295a1.305 1.305 0 0 0-1.8-.347 1.278 1.278 0 0 0-.351 1.784c.286.42.57.844.852 1.268M232.183 55.064a1.3 1.3 0 0 0 .984.447c.3 0 .6-.102.845-.31a1.278 1.278 0 0 0 .138-1.813c-.342-.394-.687-.785-1.033-1.175a1.305 1.305 0 0 0-1.832-.113 1.278 1.278 0 0 0-.114 1.815c.34.38.677.764 1.012 1.149M169.125 15.91c.498.13.993.263 1.487.398a1.296 1.296 0 0 0 1.597-.894 1.283 1.283 0 0 0-.902-1.582c-.505-.14-1.01-.274-1.518-.408a1.297 1.297 0 0 0-1.586.915c-.183.686.23 1.389.922 1.57M120.062 12.906c.057 0 .115-.003.173-.01.509-.068 1.018-.132 1.529-.193a1.288 1.288 0 0 0 1.132-1.43 1.296 1.296 0 0 0-1.444-1.123c-.52.063-1.04.128-1.56.196-.71.094-1.209.74-1.114 1.445a1.293 1.293 0 0 0 1.284 1.115M103.799 16.141c.112 0 .226-.014.34-.045.494-.133.991-.262 1.489-.39a1.283 1.283 0 0 0 .933-1.564 1.299 1.299 0 0 0-1.579-.925c-.508.13-1.015.262-1.52.398a1.284 1.284 0 0 0 .337 2.526M88.111 21.463a1.3 1.3 0 0 0 .5-.1c.471-.195.944-.387 1.418-.576a1.281 1.281 0 0 0 .719-1.672 1.302 1.302 0 0 0-1.688-.713c-.485.193-.968.39-1.45.59a1.282 1.282 0 0 0-.697 1.68c.209.494.69.791 1.198.791M95.863 18.547c.14 0 .281-.023.42-.07.486-.164.973-.326 1.462-.485.68-.222 1.05-.948.827-1.623a1.3 1.3 0 0 0-1.638-.82c-.498.162-.995.328-1.49.496-.678.23-1.04.96-.808 1.632.184.534.688.87 1.227.87M128.32 12.086c.03 0 .06 0 .089-.003a126.42 126.42 0 0 1 1.537-.093 1.29 1.29 0 0 0 1.224-1.354 1.286 1.286 0 0 0-1.366-1.213c-.524.028-1.048.06-1.57.096a1.29 1.29 0 0 0-1.207 1.369 1.292 1.292 0 0 0 1.293 1.198M111.877 14.258c.084 0 .17-.008.256-.025.504-.1 1.008-.197 1.514-.29a1.287 1.287 0 0 0 1.034-1.503 1.297 1.297 0 0 0-1.515-1.024c-.515.096-1.03.195-1.543.297a1.285 1.285 0 0 0-1.016 1.513 1.294 1.294 0 0 0 1.27 1.032M260.098 111.496c.102.498.2.998.296 1.498a1.294 1.294 0 0 0 1.515 1.025 1.286 1.286 0 0 0 1.034-1.502c-.097-.51-.197-1.02-.301-1.528a1.297 1.297 0 0 0-1.528-1.007 1.285 1.285 0 0 0-1.016 1.514M161.12 14.093c.504.097 1.008.198 1.51.301a1.295 1.295 0 0 0 1.533-.998 1.286 1.286 0 0 0-1.007-1.52c-.513-.105-1.026-.207-1.54-.306a1.297 1.297 0 0 0-1.522 1.015 1.287 1.287 0 0 0 1.025 1.508M136.617 11.799h.368c.392 0 .785.001 1.177.005h.011c.712 0 1.291-.568 1.298-1.274.006-.71-.57-1.29-1.286-1.297-.4-.004-.8-.006-1.2-.006h-.374a1.292 1.292 0 0 0-1.292 1.292c.003.708.583 1.28 1.298 1.28M144.832 12.037c.513.032 1.026.065 1.538.103l.096.003c.673 0 1.242-.515 1.293-1.19a1.29 1.29 0 0 0-1.199-1.377 121.66 121.66 0 0 0-1.569-.105c-.712-.036-1.33.495-1.374 1.204a1.29 1.29 0 0 0 1.215 1.362M153.01 12.802c.51.064 1.02.132 1.528.202a1.293 1.293 0 0 0 1.464-1.096 1.289 1.289 0 0 0-1.106-1.451c-.52-.071-1.039-.14-1.56-.206a1.298 1.298 0 0 0-1.45 1.114 1.289 1.289 0 0 0 1.124 1.437M246.337 74.983a1.299 1.299 0 0 0 1.768.485 1.28 1.28 0 0 0 .49-1.752c-.258-.451-.519-.9-.782-1.347a1.304 1.304 0 0 0-1.774-.463 1.28 1.28 0 0 0-.468 1.757c.258.439.513.879.766 1.32M199.825 244c-.443.255-.888.506-1.335.755a1.28 1.28 0 0 0-.494 1.751c.238.419.678.654 1.132.654.215 0 .434-.052.635-.165.456-.254.91-.51 1.361-.77a1.28 1.28 0 0 0 .474-1.756 1.306 1.306 0 0 0-1.773-.468M213.455 234.956c-.407.31-.815.617-1.226.921a1.278 1.278 0 0 0-.26 1.8 1.3 1.3 0 0 0 1.039.515c.27 0 .544-.084.777-.257.419-.311.836-.625 1.25-.94.569-.433.675-1.24.239-1.803a1.307 1.307 0 0 0-1.82-.236M206.788 239.7c-.426.282-.855.562-1.284.84a1.279 1.279 0 0 0-.378 1.78 1.3 1.3 0 0 0 1.088.582c.244 0 .49-.067.709-.21.438-.282.873-.568 1.308-.856a1.279 1.279 0 0 0 .356-1.783 1.306 1.306 0 0 0-1.8-.354M219.799 229.791c-.386.335-.774.668-1.163.998a1.277 1.277 0 0 0-.143 1.813c.257.297.621.45.987.45.298 0 .598-.102.843-.31.398-.337.794-.676 1.188-1.019.538-.468.591-1.28.118-1.814a1.306 1.306 0 0 0-1.83-.118M222.411 41.538c-.39-.347-.784-.69-1.179-1.032a1.306 1.306 0 0 0-1.83.123 1.278 1.278 0 0 0 .125 1.814c.387.334.771.671 1.154 1.011.248.219.557.327.865.327a1.3 1.3 0 0 0 .967-.428 1.277 1.277 0 0 0-.102-1.815M225.793 224.227c-.364.36-.729.717-1.096 1.072a1.277 1.277 0 0 0-.023 1.818 1.3 1.3 0 0 0 .93.387c.326 0 .653-.12.905-.365.375-.363.748-.728 1.118-1.095a1.276 1.276 0 0 0 0-1.817 1.305 1.305 0 0 0-1.834 0M161.599 258.283c-.503.099-1.008.195-1.514.289a1.286 1.286 0 0 0-1.038 1.499 1.294 1.294 0 0 0 1.514 1.028c.515-.095 1.03-.193 1.543-.294a1.285 1.285 0 0 0 1.02-1.51 1.296 1.296 0 0 0-1.525-1.012M231.41 218.287c-.338.382-.679.762-1.022 1.14-.48.527-.437 1.34.094 1.815a1.3 1.3 0 0 0 .869.33c.355 0 .708-.143.964-.424.351-.387.7-.775 1.046-1.166a1.277 1.277 0 0 0-.12-1.813 1.305 1.305 0 0 0-1.83.118M169.598 256.435c-.496.132-.993.26-1.49.386a1.284 1.284 0 0 0-.937 1.563 1.296 1.296 0 0 0 1.577.929c.509-.129 1.016-.26 1.522-.395a1.284 1.284 0 0 0 .917-1.574 1.3 1.3 0 0 0-1.59-.909M192.598 247.84c-.46.224-.92.446-1.382.666a1.28 1.28 0 0 0-.607 1.715 1.3 1.3 0 0 0 1.73.603c.471-.224.94-.451 1.409-.68a1.28 1.28 0 0 0 .588-1.722 1.304 1.304 0 0 0-1.738-.583M185.135 251.2c-.472.193-.945.385-1.42.573a1.282 1.282 0 0 0-.72 1.672 1.298 1.298 0 0 0 1.686.715c.485-.193.968-.389 1.45-.587a1.28 1.28 0 0 0 .7-1.68 1.302 1.302 0 0 0-1.696-.694M177.456 254.07c-.486.164-.973.326-1.46.483a1.283 1.283 0 0 0 .401 2.508c.134 0 .27-.02.403-.064.5-.161.997-.325 1.493-.493a1.282 1.282 0 0 0 .81-1.63 1.3 1.3 0 0 0-1.647-.803M257.602 175.414a1.3 1.3 0 0 0-1.645.803c-.166.485-.335.968-.506 1.45-.239.669.116 1.402.791 1.639a1.298 1.298 0 0 0 1.655-.784c.176-.492.348-.984.517-1.478a1.282 1.282 0 0 0-.812-1.63M262.975 151.362a1.297 1.297 0 0 0-1.454 1.109c-.066.505-.136 1.009-.208 1.512a1.287 1.287 0 0 0 1.285 1.467c.635 0 1.19-.462 1.283-1.103.074-.513.145-1.028.213-1.544a1.289 1.289 0 0 0-1.119-1.44M261.718 159.49a1.298 1.298 0 0 0-1.524 1.011c-.1.5-.203.998-.308 1.496a1.285 1.285 0 0 0 1.002 1.523 1.295 1.295 0 0 0 1.537-.993c.108-.509.212-1.017.314-1.527a1.286 1.286 0 0 0-1.021-1.51M259.925 167.52a1.3 1.3 0 0 0-1.588.91c-.133.492-.269.983-.407 1.472-.193.684.21 1.394.9 1.584a1.296 1.296 0 0 0 1.599-.892c.14-.498.28-1 .415-1.5a1.285 1.285 0 0 0-.919-1.575M238.448 211.759a1.304 1.304 0 0 0-1.82.236c-.313.404-.628.806-.946 1.206a1.277 1.277 0 0 0 .215 1.804 1.3 1.3 0 0 0 .803.277c.383 0 .763-.168 1.02-.49.324-.408.646-.818.966-1.23.437-.564.33-1.37-.238-1.803M265.174 135.746a1.291 1.291 0 0 0-1.298-1.282h-.004a1.291 1.291 0 0 0-1.293 1.29l.001.481c0 .51-.003 1.019-.01 1.527a1.29 1.29 0 0 0 1.282 1.301h.016c.71 0 1.289-.565 1.298-1.27.006-.518.009-1.038.009-1.56l-.001-.487zM263.694 143.17a1.29 1.29 0 0 0-1.378 1.2c-.033.509-.07 1.016-.108 1.523a1.288 1.288 0 0 0 1.294 1.384c.672 0 1.24-.513 1.292-1.187.041-.517.078-1.035.111-1.554a1.29 1.29 0 0 0-1.21-1.366M243.223 205.025a1.304 1.304 0 0 0-1.8.354c-.286.423-.575.844-.867 1.264a1.278 1.278 0 0 0 .335 1.787c.224.153.48.226.733.226.413 0 .82-.194 1.07-.557.298-.428.593-.858.885-1.29.399-.59.239-1.389-.356-1.784M153.494 259.606c-.508.066-1.018.13-1.529.19a1.288 1.288 0 0 0-1.135 1.428 1.293 1.293 0 0 0 1.442 1.124c.52-.06 1.04-.125 1.56-.193a1.288 1.288 0 0 0 1.117-1.442 1.292 1.292 0 0 0-1.455-1.107M247.545 197.994a1.305 1.305 0 0 0-1.772.469c-.258.44-.519.88-.781 1.319a1.278 1.278 0 0 0 .45 1.762c.209.122.437.18.663.18a1.3 1.3 0 0 0 1.116-.627c.268-.447.534-.896.797-1.347.36-.614.147-1.4-.473-1.756M254.752 183.158a1.302 1.302 0 0 0-1.695.695c-.198.472-.398.942-.6 1.411a1.281 1.281 0 0 0 .68 1.688 1.304 1.304 0 0 0 1.703-.675c.208-.478.412-.958.614-1.439a1.282 1.282 0 0 0-.702-1.68M251.394 190.695a1.304 1.304 0 0 0-1.738.583c-.228.457-.459.913-.692 1.367a1.28 1.28 0 0 0 .567 1.73 1.299 1.299 0 0 0 1.745-.562c.238-.464.474-.93.707-1.396a1.28 1.28 0 0 0-.589-1.722M67.3 239.777c-.428-.284-.854-.569-1.278-.857a1.305 1.305 0 0 0-1.804.333 1.278 1.278 0 0 0 .337 1.788c.433.293.867.585 1.303.873a1.3 1.3 0 0 0 1.8-.354 1.278 1.278 0 0 0-.358-1.783M47.176 223.224a1.305 1.305 0 0 0-1.835-.019 1.277 1.277 0 0 0-.02 1.818c.367.37.736.74 1.106 1.105.253.251.585.376.917.376a1.3 1.3 0 0 0 .918-.377 1.278 1.278 0 0 0-.002-1.818c-.364-.36-.725-.721-1.084-1.085M18.092 176.448c-.166-.482-.329-.964-.49-1.448a1.3 1.3 0 0 0-1.635-.821 1.283 1.283 0 0 0-.83 1.621c.164.494.33.987.5 1.478a1.298 1.298 0 0 0 1.646.802c.678-.23 1.04-.96.809-1.632M53.108 228.857a1.305 1.305 0 0 0-1.832.097 1.277 1.277 0 0 0 .1 1.816c.39.347.781.691 1.175 1.033a1.3 1.3 0 0 0 .855.32c.36 0 .72-.15.976-.44a1.276 1.276 0 0 0-.12-1.812c-.387-.337-.771-.675-1.154-1.014M96.745 254.149c-.488-.164-.975-.33-1.46-.5a1.299 1.299 0 0 0-1.656.784 1.282 1.282 0 0 0 .792 1.64c.496.174.995.344 1.494.51a1.297 1.297 0 0 0 1.645-.806 1.283 1.283 0 0 0-.815-1.628M89.037 251.283a150.78 150.78 0 0 1-1.425-.594 1.303 1.303 0 0 0-1.703.676 1.28 1.28 0 0 0 .683 1.688c.483.205.967.406 1.453.605a1.3 1.3 0 0 0 1.695-.695 1.28 1.28 0 0 0-.703-1.68M74.283 244.08c-.445-.255-.889-.512-1.331-.773a1.305 1.305 0 0 0-1.778.448 1.279 1.279 0 0 0 .453 1.762c.451.266.904.529 1.36.79.204.116.427.171.647.171a1.3 1.3 0 0 0 1.125-.642 1.279 1.279 0 0 0-.476-1.756M81.54 247.921c-.462-.225-.923-.454-1.382-.684a1.303 1.303 0 0 0-1.744.563 1.28 1.28 0 0 0 .569 1.728c.468.236.938.469 1.41.699a1.3 1.3 0 0 0 1.737-.584 1.28 1.28 0 0 0-.59-1.722M60.617 235.033c-.408-.31-.815-.623-1.219-.937a1.306 1.306 0 0 0-1.821.216 1.277 1.277 0 0 0 .218 1.805c.412.32.826.64 1.243.956a1.301 1.301 0 0 0 1.819-.238 1.278 1.278 0 0 0-.24-1.802M23.722 190.076a1.303 1.303 0 0 0-1.732-.601 1.28 1.28 0 0 0-.606 1.715c.226.466.455.932.687 1.395a1.299 1.299 0 0 0 1.738.58 1.28 1.28 0 0 0 .587-1.722c-.228-.455-.452-.91-.674-1.367M41.63 217.225a1.305 1.305 0 0 0-1.83-.14 1.276 1.276 0 0 0-.141 1.812c.341.395.685.787 1.03 1.177a1.3 1.3 0 0 0 .976.436c.304 0 .61-.105.856-.32.538-.469.59-1.281.117-1.814-.338-.381-.675-.765-1.008-1.151M20.416 182.646a1.302 1.302 0 0 0-1.688-.713 1.281 1.281 0 0 0-.72 1.672c.196.48.393.958.594 1.436a1.298 1.298 0 0 0 1.696.693 1.28 1.28 0 0 0 .699-1.681c-.197-.468-.39-.936-.581-1.407M27.514 197.278a1.304 1.304 0 0 0-1.767-.488 1.28 1.28 0 0 0-.493 1.752c.257.451.517.9.78 1.348a1.298 1.298 0 0 0 1.772.467c.62-.356.83-1.143.471-1.757-.257-.439-.511-.88-.763-1.322M36.488 210.882a1.305 1.305 0 0 0-1.816-.256 1.277 1.277 0 0 0-.26 1.8c.315.414.632.827.951 1.238.256.329.64.501 1.029.501.276 0 .555-.087.79-.267.568-.433.674-1.24.237-1.803-.313-.402-.623-.806-.931-1.213M31.776 204.224a1.305 1.305 0 0 0-1.795-.373 1.278 1.278 0 0 0-.377 1.779c.286.434.575.867.867 1.297.25.37.66.569 1.078.569.249 0 .5-.07.722-.218a1.278 1.278 0 0 0 .354-1.784c-.285-.422-.569-.845-.849-1.27M120.72 259.638c-.51-.065-1.02-.134-1.527-.205a1.298 1.298 0 0 0-1.466 1.093c-.1.703.393 1.353 1.102 1.453.519.072 1.038.142 1.559.209a1.293 1.293 0 0 0 1.453-1.11 1.288 1.288 0 0 0-1.122-1.44M104.61 256.499c-.497-.13-.992-.264-1.486-.401a1.298 1.298 0 0 0-1.599.89c-.194.684.21 1.394.9 1.585.504.14 1.01.277 1.518.41a1.296 1.296 0 0 0 1.587-.912 1.284 1.284 0 0 0-.92-1.572M145.32 260.402c-.513.033-1.026.063-1.54.091a1.29 1.29 0 0 0-1.225 1.352 1.292 1.292 0 0 0 1.365 1.215c.524-.028 1.047-.059 1.57-.093a1.29 1.29 0 0 0 1.209-1.367 1.298 1.298 0 0 0-1.38-1.198M112.613 258.33c-.505-.098-1.009-.2-1.511-.303-.7-.145-1.389.3-1.535.996a1.286 1.286 0 0 0 1.004 1.52c.513.106 1.026.21 1.54.31a1.295 1.295 0 0 0 1.524-1.012 1.286 1.286 0 0 0-1.022-1.51M137.108 260.671h-.123c-.473 0-.946-.002-1.418-.007h-.016c-.709 0-1.288.566-1.296 1.27a1.29 1.29 0 0 0 1.281 1.3c.474.006.947.009 1.436.009h.136c.717 0 1.298-.576 1.298-1.286 0-.71-.581-1.286-1.298-1.286M128.896 260.418c-.513-.032-1.026-.068-1.537-.106a1.288 1.288 0 0 0-1.392 1.185 1.29 1.29 0 0 0 1.196 1.378c.522.04 1.045.075 1.569.108l.083.003c.679 0 1.25-.523 1.293-1.204a1.29 1.29 0 0 0-1.212-1.364M169.211 245.525l-5.734-14.045c-.315-.774-1.487-.463-1.37.364l2.123 15.004c.216 1.531 1.737 2.53 3.245 2.13 1.508-.4 2.322-2.019 1.736-3.453M187.455 221.441c-.507-.666-1.557-.066-1.228.702l5.97 13.95c.609 1.424 2.339 1.997 3.69 1.224a2.56 2.56 0 0 0 .776-3.78l-9.208-12.096zM220.286 218.768a2.559 2.559 0 0 0-.238-3.85l-12.055-9.323c-.663-.513-1.52.336-1.002.994l9.41 11.943a2.615 2.615 0 0 0 3.885.236M36.198 81.533l14.079 5.914c.775.326 1.381-.714.708-1.217l-12.209-9.123a2.612 2.612 0 0 0-3.814.769 2.564 2.564 0 0 0 1.236 3.657M237.772 190.938l-14.08-5.915c-.774-.325-1.38.715-.708 1.217l12.209 9.123a2.611 2.611 0 0 0 3.815-.769 2.564 2.564 0 0 0-1.236-3.656M23.193 106.026c-.404 1.493.603 3 2.15 3.215l15.143 2.103c.835.116 1.148-1.044.367-1.357l-14.176-5.681c-1.447-.58-3.08.226-3.484 1.72M250.777 166.444c.403-1.493-.604-3-2.15-3.215l-15.144-2.103c-.834-.115-1.147 1.044-.367 1.357l14.177 5.682c1.447.58 3.08-.227 3.484-1.72M254.79 136.235c0-1.546-1.366-2.744-2.915-2.555l-15.178 1.853c-.836.102-.836 1.302 0 1.405l15.178 1.852c1.549.19 2.916-1.008 2.916-2.555M247.293 104.306l-14.177 5.681c-.78.313-.467 1.473.367 1.357l15.144-2.103c1.546-.214 2.554-1.722 2.15-3.215-.404-1.494-2.037-2.3-3.484-1.72M223.693 87.447l14.079-5.914a2.564 2.564 0 0 0 1.236-3.657 2.612 2.612 0 0 0-3.815-.769l-12.209 9.123c-.672.503-.066 1.543.709 1.217"/>
        <path d="M230.912 229.296c-25.089 24.858-58.446 38.547-93.927 38.547-35.481 0-68.839-13.69-93.927-38.547-25.09-24.858-38.906-57.907-38.906-93.06 0-35.154 13.817-68.204 38.906-93.062 25.088-24.857 58.446-38.547 93.927-38.547 35.481 0 68.839 13.69 93.927 38.547 25.09 24.858 38.906 57.908 38.906 93.061 0 35.154-13.817 68.203-38.906 93.06m2.936-189.029C207.975 14.631 173.575.514 136.985.514c-36.59 0-70.99 14.117-96.863 39.752C14.25 65.9 0 99.983 0 136.236c0 36.252 14.249 70.334 40.122 95.968 25.873 25.635 60.273 39.753 96.863 39.753 36.59 0 70.99-14.118 96.863-39.753 25.873-25.634 40.122-59.716 40.122-95.969 0-36.252-14.25-70.335-40.122-95.969"/>
        <path d="M80.97 61.939l-1.762-1.977-7.33 6.416L59.175 52.13l-2.297 2.01 14.468 16.225zM86.622 58.408l-12.113-18.02-2.55 1.683 12.112 18.02zM91.6 55.196l2.777-1.281-4.232-9.008 2.947-1.359 9.507 6.575 3.143-1.45-10.937-7.437-.026-.056 1.377-11.966-3.059 1.41-1.116 10.56-2.946 1.36-3.879-8.257-2.778 1.281zM109.09 47.822l12.839-3.098-.63-2.563-9.863 2.38-1.662-6.762 7.607-1.836-.63-2.561-7.607 1.835-1.619-6.583 9.351-2.257-.63-2.562-12.327 2.975zM144.038 44.425c5.469.319 8.669-2.935 8.669-2.935l-1.509-2.27s-2.793 2.664-6.902 2.425c-4.852-.283-7.863-4.39-7.589-9.013.273-4.591 3.673-8.08 8.554-7.795 3.77.22 6.164 2.724 6.164 2.724l1.648-2.177s-2.52-3.003-7.771-3.31c-6.334-.369-11.376 4.13-11.748 10.406-.376 6.336 3.934 11.564 10.484 11.945M160.977 35.262c1.447-4.5 5.987-6.801 10.234-5.46 4.247 1.339 6.578 5.809 5.132 10.309-1.494 4.645-6.042 7.072-10.29 5.732-4.246-1.34-6.57-5.936-5.076-10.581m4.222 13.24c6.016 1.899 12.198-1.364 14.152-7.442 1.907-5.932-1.278-11.99-7.295-13.888-6.016-1.899-12.18 1.209-14.087 7.14-1.954 6.079 1.214 12.292 7.23 14.19M182.303 55.421l10.315-19.084-2.7-1.434L179.6 53.99zM203.352 42.848l-2.389-1.85-13.456 17.054 2.415 1.87 8.728-11.064c.762-.966 1.793-2.62 1.793-2.62l.048.038s-.415 2.169-.524 3.602l-1.05 17.011 2.366 1.832 13.455-17.055-2.414-1.868-8.748 11.087c-.743.942-1.773 2.596-1.773 2.596l-.049-.037s.416-2.17.506-3.578l1.092-17.018z"/>
    </g>
</svg>
