<svg xmlns="http://www.w3.org/2000/svg" width="52" height="52" viewBox="0 0 52 52">
    <defs>
        <linearGradient id="a" x1="-75.149%" x2="152.618%" y1="121.571%" y2="-5.655%">
            <stop offset="0%" stop-color="#A8FF97"/>
            <stop offset="29.618%" stop-color="#69ECF2"/>
            <stop offset="50.664%" stop-color="#77CAF6"/>
            <stop offset="77.216%" stop-color="#B792FF"/>
            <stop offset="100%" stop-color="#FE7BA1"/>
        </linearGradient>
    </defs>
    <g fill="url(#a)" fill-rule="evenodd" transform="translate(-379 -1452)">
        <path d="M414.344 1483.047c.831 0 1.601-.11 2.31-.333a8.326 8.326 0 0 0 2.124-1.041v3.698a6.963 6.963 0 0 1-2.118.92c-.713.17-1.613.256-2.699.256-4.93 0-7.395-2.706-7.395-8.118 0-2.692.67-4.749 2.012-6.17 1.34-1.422 3.263-2.133 5.766-2.133 1.832 0 3.476.36 4.93 1.077l-1.275 3.344a21.934 21.934 0 0 0-1.898-.673 6.116 6.116 0 0 0-1.757-.262c-2.248 0-3.372 1.596-3.372 4.788 0 3.098 1.124 4.647 3.372 4.647m-14.919 0c.831 0 1.601-.11 2.31-.333a8.325 8.325 0 0 0 2.125-1.041v3.698a6.966 6.966 0 0 1-2.119.92c-.713.17-1.612.256-2.698.256-4.93 0-7.396-2.706-7.396-8.118 0-2.692.67-4.749 2.012-6.17 1.341-1.422 3.263-2.133 5.766-2.133 1.832 0 3.476.36 4.93 1.077l-1.274 3.344a21.973 21.973 0 0 0-1.899-.673 6.117 6.117 0 0 0-1.757-.262c-2.248 0-3.372 1.596-3.372 4.788 0 3.098 1.124 4.647 3.372 4.647m6.013-25.537c-11.54 0-20.928 9.388-20.928 20.928 0 11.54 9.388 20.929 20.928 20.929 11.54 0 20.93-9.389 20.93-20.929s-9.39-20.928-20.93-20.928"/>
        <path d="M405.438 1501.722c-12.838 0-23.284-10.445-23.284-23.284 0-12.838 10.446-23.283 23.284-23.283 12.84 0 23.284 10.445 23.284 23.283 0 12.84-10.445 23.284-23.284 23.284m0-48.793c-14.088 0-25.509 11.42-25.509 25.51 0 14.088 11.42 25.509 25.51 25.509 14.088 0 25.509-11.421 25.509-25.51 0-14.088-11.421-25.509-25.51-25.509"/>
    </g>
</svg>
