<svg xmlns="http://www.w3.org/2000/svg" width="55" height="43" viewBox="0 0 55 43">
    <defs>
        <linearGradient id="a" x1="0%" x2="156.672%" y1="71.115%" y2="-14.682%">
            <stop offset="0%" stop-color="#F97CCA"/>
            <stop offset="100%" stop-color="#D60B0B"/>
        </linearGradient>
    </defs>
    <path fill="url(#a)" fill-rule="evenodd" d="M31.93 42.507h-8.895a.707.707 0 0 1-.712-.702v-.796H.713A.707.707 0 0 1 0 40.307V7.543c0-.388.319-.703.712-.703.394 0 .713.315.713.703v32.062h21.61c.394 0 .712.314.712.702v.796h7.47v-.796c0-.388.319-.702.712-.702h21.61V7.543c0-.388.32-.703.713-.703.393 0 .712.315.712.703v32.764a.707.707 0 0 1-.712.702h-21.61v.796a.707.707 0 0 1-.713.702zM26.911 3.938V37.57c-5.537-3.58-14.249-5.196-23.403-.28V3.446c9.228-5.827 18.161-3.3 23.403.491zm1.14 0c5.242-3.79 14.175-6.318 23.404-.491v33.841c-9.155-4.915-17.867-3.3-23.404.281V3.939z"/>
</svg>
