<svg xmlns="http://www.w3.org/2000/svg" width="46" height="45" viewBox="0 0 46 45">
    <defs>
        <linearGradient id="a" x1="0%" x2="124.2%" y1="-10.01%" y2="120.739%">
            <stop offset="0%" stop-color="#B4ED50"/>
            <stop offset="100%" stop-color="#217B93"/>
        </linearGradient>
    </defs>
    <path fill="url(#a)" fill-rule="evenodd" d="M12.95 13.245L10.051 6.55l-2.985 6.694h5.884zm.488 1.06H6.563l-.818 1.892c-.268.631-.402 1.152-.402 1.563 0 .545.22.946.66 1.204.259.153.895.268 1.91.344v.53H1.438v-.53c.698-.105 1.272-.394 1.722-.867.45-.473 1.005-1.45 1.665-2.931L11.788 0h.272l7.02 15.94c.669 1.51 1.22 2.46 1.65 2.852.325.296.784.468 1.378.516v.53h-9.416v-.53h.388c.755 0 1.287-.105 1.593-.315.21-.153.315-.373.315-.66 0-.172-.028-.349-.086-.53-.019-.086-.163-.444-.43-1.075l-1.034-2.423zm32.049 13.58H1.451c-.283 0-.513-.248-.513-.554v-.624c0-.305.23-.553.513-.553h44.036c.283 0 .513.248.513.553v.624c0 .306-.23.554-.513.554zm0 8.28H1.451c-.283 0-.513-.249-.513-.554v-.624c0-.306.23-.554.513-.554h44.036c.283 0 .513.248.513.554v.624c0 .305-.23.553-.513.553zm0-16.56H25.725c-.284 0-.513-.247-.513-.553v-.624c0-.306.23-.553.513-.553h19.762c.283 0 .513.247.513.553v.624c0 .306-.23.553-.513.553zm0-8.279H25.725c-.284 0-.513-.248-.513-.553v-.624c0-.306.23-.554.513-.554h19.762c.283 0 .513.248.513.554v.624c0 .305-.23.553-.513.553zm0-8.28H25.725c-.284 0-.513-.247-.513-.553V1.87c0-.305.23-.553.513-.553h19.762c.283 0 .513.248.513.553v.624c0 .306-.23.554-.513.554zm-13.82 41.398H1.45c-.283 0-.513-.248-.513-.554v-.624c0-.306.23-.553.513-.553h30.216c.283 0 .513.247.513.553v.624c0 .306-.23.554-.513.554z"/>
</svg>
