<svg xmlns="http://www.w3.org/2000/svg" width="280" height="160" viewBox="0 0 280 160">
    <defs>
        <linearGradient id="a" x1="96.318%" x2="12.056%" y1="96.318%" y2="12.589%">
            <stop offset="0%" stop-color="#50FF6D"/>
            <stop offset="58.669%" stop-color="#40C4B8"/>
            <stop offset="100%" stop-color="#359BED"/>
        </linearGradient>
    </defs>
    <g fill="none" fill-rule="evenodd">
        <g transform="translate(64 33)">
            <rect width="153" height="100" fill="url(#a)" rx="8"/>
            <path fill="#4A4A4A" fill-opacity=".6" d="M0 13.636h153v24.545H0z"/>
        </g>
        <g fill="#FFF">
            <path d="M201.313 106.749c-.901-.801-1.87-.868-3.005-1.035v7.073c2.47-.234 3.94-1.501 3.94-3.57 0-1.034-.3-1.901-.935-2.468zm-5.143-11.61c-2.337.233-3.606 1.701-3.606 3.636 0 .867.267 1.635.901 2.202.702.634 1.67.967 2.705 1.1V95.14zm2.438 20.85v3.704h-2.738v-3.603c-3.173-.134-5.51-1.001-7.614-3.136l2.404-2.369c1.603 1.601 3.373 2.169 5.51 2.269v-7.407l-.868-.1c-1.903-.233-3.506-1-4.475-1.901-1.169-1.101-1.77-2.603-1.77-4.537 0-3.804 2.538-6.506 6.813-6.907V89h2.738v2.97c2.638.166 4.575.967 6.378 2.668l-2.304 2.269c-1.169-1.101-2.671-1.668-4.374-1.802v7.206l1.135.167c2.204.334 3.44.868 4.441 1.768 1.303 1.135 1.937 2.836 1.937 4.871 0 3.97-2.905 6.472-7.213 6.873zM178.685 106.749c-.901-.801-1.87-.868-3.005-1.035v7.073c2.47-.234 3.94-1.501 3.94-3.57 0-1.034-.3-1.901-.935-2.468zm-5.142-11.61c-2.338.233-3.607 1.701-3.607 3.636 0 .867.267 1.635.901 2.202.702.634 1.67.967 2.706 1.1V95.14zm2.437 20.85v3.704h-2.738v-3.603c-3.173-.134-5.51-1.001-7.614-3.136l2.404-2.369c1.603 1.601 3.373 2.169 5.51 2.269v-7.407l-.868-.1c-1.903-.233-3.506-1-4.475-1.901-1.169-1.101-1.77-2.603-1.77-4.537 0-3.804 2.538-6.506 6.813-6.907V89h2.738v2.97c2.638.166 4.575.967 6.379 2.668l-2.305 2.269c-1.168-1.101-2.671-1.668-4.374-1.802v7.206l1.135.167c2.204.334 3.44.868 4.442 1.768 1.302 1.135 1.937 2.836 1.937 4.871 0 3.97-2.906 6.472-7.214 6.873zM156.057 106.749c-.901-.801-1.87-.868-3.005-1.035v7.073c2.471-.234 3.94-1.501 3.94-3.57 0-1.034-.3-1.901-.935-2.468zm-5.142-11.61c-2.338.233-3.607 1.701-3.607 3.636 0 .867.267 1.635.902 2.202.7.634 1.67.967 2.705 1.1V95.14zm2.437 20.85v3.704h-2.738v-3.603c-3.173-.134-5.51-1.001-7.614-3.136l2.404-2.369c1.603 1.601 3.373 2.169 5.51 2.269v-7.407l-.868-.1c-1.903-.233-3.506-1-4.475-1.901-1.168-1.101-1.77-2.603-1.77-4.537 0-3.804 2.538-6.506 6.813-6.907V89h2.738v2.97c2.639.166 4.575.967 6.379 2.668l-2.305 2.269c-1.168-1.101-2.671-1.668-4.374-1.802v7.206l1.135.167c2.204.334 3.44.868 4.442 1.768 1.302 1.135 1.937 2.836 1.937 4.871 0 3.97-2.906 6.472-7.214 6.873z"/>
        </g>
    </g>
</svg>
