<svg xmlns="http://www.w3.org/2000/svg" width="280" height="160" viewBox="0 0 280 160">
    <defs>
        <linearGradient id="a" x1="100%" x2="-21.93%" y1="111.505%" y2="-56.14%">
            <stop offset="0%" stop-color="#F97CCA"/>
            <stop offset="100%" stop-color="#D60B0B"/>
        </linearGradient>
    </defs>
    <g fill="none" fill-rule="evenodd">
        <path fill="url(#a)" d="M158.521 75.85c7.984-5.676 13.198-14.993 13.198-25.535 0-17.295-14.02-31.315-31.316-31.315-17.295 0-31.315 14.02-31.315 31.315 0 10.542 5.214 19.86 13.198 25.535C104.664 83.895 91 98.89 91 117.076v33.904h98.806v-33.904c0-18.187-13.664-33.181-31.285-41.226"/>
        <path fill="#FFF" d="M136.181 73.028c0-1.345.713-2.017 1.96-2.017h2.078c1.247 0 1.959.672 1.959 2.017v1.955c0 1.345-.712 2.017-1.96 2.017h-2.077c-1.247 0-1.96-.672-1.96-2.017v-1.955zm.179-9.9v-1.223c0-8.555 10.093-10.144 10.093-17.294 0-3.422-2.85-6.05-6.828-6.05-2.197 0-4.037.856-5.165 1.528-1.069.55-2.138.489-2.79-.55l-.773-1.1c-.712-1.1-.712-2.017.357-2.75 1.662-1.1 4.75-2.689 8.787-2.689 6.768 0 12.408 4.4 12.408 11.184 0 9.777-9.974 11.06-10.45 18.15l-.058 1.283c-.179 1.038-.713 1.527-1.9 1.527h-1.722c-1.247 0-1.96-.733-1.96-2.016z"/>
    </g>
</svg>
