<svg xmlns="http://www.w3.org/2000/svg" width="280" height="160" viewBox="0 0 280 160">
    <defs>
        <linearGradient id="a" x1="36.4%" x2="106.244%" y1="-21.545%" y2="158.075%">
            <stop offset="0%" stop-color="#FBDA61"/>
            <stop offset="100%" stop-color="#F76B1C"/>
        </linearGradient>
    </defs>
    <g fill="none" fill-rule="evenodd">
        <path fill="url(#a)" d="M53.55 48.452c-17.167-9.276-27.501-20.496-25.001-28.127l2.315-7.07.074-.223c.162-.497.821-.474.898.032l.004.03.001.008c.026.17.057.343.093.515.011.056.026.113.038.169.027.119.054.238.085.358l.057.206c.03.108.062.216.095.326l.073.221a16.773 16.773 0 0 0 .194.544c.042.107.084.214.128.32.031.076.062.151.095.226.047.11.098.22.148.331l.103.22c.056.118.117.237.178.356.033.065.065.13.1.195.08.154.165.308.253.463l.051.093c.107.186.218.373.334.56l.108.17c.082.131.166.262.253.394l.147.218c.079.116.158.233.241.35l.168.234c.081.113.163.226.248.339.06.08.12.16.182.24a34.557 34.557 0 0 0 .737.925l.193.231c.104.123.212.247.32.37a31.698 31.698 0 0 0 .593.663 38.122 38.122 0 0 0 .667.71c.052.055.108.11.162.166.136.14.273.279.414.419l.225.221.377.366a38.296 38.296 0 0 0 .895.834c.126.116.255.231.383.347l.279.247c.133.117.268.234.404.35l.278.24.44.37c.088.072.175.146.264.22.178.146.359.292.54.439l.184.148c.245.196.494.392.746.588l.195.149a77.639 77.639 0 0 0 1.368 1.027l.325.236a72.057 72.057 0 0 0 1.327.94 65.756 65.756 0 0 0 .868.592l.35.237a84.286 84.286 0 0 0 .885.582c.213.139.43.278.647.416l.253.163c.303.192.61.383.92.574l.203.126c.244.15.49.3.737.448.113.069.229.137.343.205.204.122.41.245.616.366l.391.23.591.34c.136.079.273.156.41.234.195.111.392.223.59.333.14.08.281.158.422.237a89.105 89.105 0 0 0 1.027.562c.211.115.424.228.638.342l.398.213c.244.129.491.257.738.386l.319.166a123.302 123.302 0 0 0 2.157 1.088l.386.188c.238.116.477.232.717.347.15.073.3.144.451.216l.672.318.473.22c.224.105.448.208.673.311.157.073.315.144.474.217l.693.312.472.21a170.583 170.583 0 0 0 1.99.862c.123.053.245.106.37.158.397.167.796.334 1.198.5l.128.051c.36.148.722.295 1.086.441.138.056.277.11.415.165.27.108.54.215.812.321l.487.19c.252.096.504.194.758.29.171.066.343.13.514.195l.742.278.53.196.755.274.52.188.79.28.496.173.873.3.422.145a148.051 148.051 0 0 0 3.04.993 154.626 154.626 0 0 0 2.186.674l.53.158.77.226.542.157a166.163 166.163 0 0 0 2.075.58l.503.137c.282.075.564.15.846.223l.43.113c.38.099.759.195 1.136.29l.135.034c.421.105.841.208 1.26.309l.391.092c.29.069.578.137.865.203l.48.11a124.408 124.408 0 0 0 2.017.444l.508.106.727.15.511.102.73.143.49.094c.262.05.523.097.783.145l.423.078 1.026.18c.056.008.113.019.169.028.397.068.793.133 1.187.196l.353.054c.276.044.55.087.824.128l.446.065a107.301 107.301 0 0 0 3.029.4c.156.02.313.038.469.056l.678.075.45.048c.24.025.477.048.715.071l.395.038c.29.027.578.052.865.076l.232.02c.363.03.723.057 1.08.082l.303.02c.257.017.513.034.767.049l.394.021c.222.012.443.024.663.034l.42.018a93.511 93.511 0 0 0 1.05.037 64.409 64.409 0 0 0 1.023.023c.203.004.404.006.605.008.133 0 .266.002.398.003.211 0 .42 0 .627-.002.12 0 .242 0 .36-.002.246-.003.488-.007.73-.013l.239-.004c.319-.008.635-.018.948-.03l.235-.011c.234-.01.466-.02.697-.034l.34-.02.576-.037c.122-.008.243-.018.364-.027a83.085 83.085 0 0 0 .904-.078 41.464 41.464 0 0 0 1.386-.149l.342-.043c.176-.022.35-.047.523-.071l.31-.044c.197-.03.392-.061.586-.093.074-.012.15-.023.224-.036.266-.045.53-.093.788-.142.057-.01.112-.023.169-.034.201-.04.402-.08.6-.122l.268-.06c.16-.036.321-.072.48-.11.097-.022.193-.047.289-.07a32.157 32.157 0 0 0 1.144-.31 30.266 30.266 0 0 0 .689-.21c.09-.03.183-.059.272-.09.137-.044.27-.092.404-.139l.245-.087c.149-.055.295-.112.44-.169l.184-.071c.204-.082.405-.167.6-.253l.092-.043c.164-.073.326-.148.484-.224l.193-.097c.12-.061.24-.121.357-.184l.21-.114a16.592 16.592 0 0 0 .525-.305 15.367 15.367 0 0 0 .496-.314l.277-.192c.064-.045.127-.089.188-.135.093-.067.182-.137.27-.206.057-.044.114-.087.168-.132.097-.079.19-.158.282-.24l.128-.11c.131-.119.258-.238.38-.36l.027-.028c.362-.363.905.01.742.507l-.073.224-2.316 7.069c-1.995 6.09-11.928 9.171-25.677 8.787.617 1.167.94 2.37.94 3.601 0 10.685-24.338 19.347-54.36 19.347-30.021 0-54.359-8.662-54.359-19.347 0-10.375 22.948-18.842 51.765-19.324zm57.875 24.808c.231-.457.864-.273.864.25v7.676c0 11.036-25.137 20.945-56.145 20.945C25.137 102.13 0 92.22 0 81.186V73.511c0-.524.632-.708.863-.251l.014.028.003.006c.078.155.16.308.249.46.028.05.06.1.088.15.063.104.125.209.192.313.038.059.08.118.119.177a9.344 9.344 0 0 0 .329.468 12.354 12.354 0 0 0 .575.722l.16.184a13.878 13.878 0 0 0 .41.444c.091.095.186.19.28.284l.156.155c.125.12.253.24.384.36l.08.072c.158.143.322.286.49.427.05.044.104.086.155.129.12.098.24.197.364.295a23.866 23.866 0 0 0 .545.418l.233.171a21.365 21.365 0 0 0 .588.416c.117.08.235.16.355.239l.255.168c.125.08.251.161.379.241l.255.16c.137.084.278.167.418.251l.24.143c.174.101.351.202.53.302l.15.086c.232.127.466.254.705.38l.206.107c.173.09.347.18.524.269l.283.14.472.23a37.858 37.858 0 0 0 1.11.513l.472.21c.114.048.227.098.341.147.163.07.328.138.494.208a60.577 60.577 0 0 0 .871.353l.32.127c.214.084.432.167.65.249l.22.083c.294.11.592.218.892.326l.232.08c.225.08.452.16.683.238.113.039.23.077.344.115a71.228 71.228 0 0 0 1.55.5 74.486 74.486 0 0 0 1.988.589 58.513 58.513 0 0 0 1.428.392c.245.066.494.13.744.195l.292.075c.347.087.698.174 1.05.259l.235.055c.278.066.557.132.839.197l.389.087.7.156.443.095a116.22 116.22 0 0 0 2.945.586l.474.086c.237.043.474.085.713.126l.445.078.82.136.355.059c.394.063.79.125 1.189.185l.173.025c.34.05.683.101 1.028.15l.424.058c.263.036.525.072.79.106l.495.064a162.247 162.247 0 0 0 1.992.24 169.861 169.861 0 0 0 1.787.19l.784.075.49.046c.294.027.59.052.884.077l.401.034c.43.035.861.07 1.294.1l.138.01a178.462 178.462 0 0 0 2.487.158l.52.027a111.483 111.483 0 0 0 1.362.065c.263.012.527.022.791.033l.565.02c.267.01.534.017.802.025l.552.016.838.019.525.01c.307.006.614.01.923.013l.447.005a163.148 163.148 0 0 0 2.75 0l.447-.005c.309-.004.617-.007.923-.013l.526-.01c.28-.006.559-.012.838-.02.184-.004.367-.01.551-.015a144.28 144.28 0 0 0 3.52-.143c.173-.009.347-.017.52-.027a103.635 103.635 0 0 0 1.318-.078c.391-.025.781-.052 1.17-.08l.137-.01c.433-.03.864-.065 1.294-.1.134-.01.267-.023.4-.034.296-.025.591-.05.885-.077l.49-.046.785-.075.513-.053a93.489 93.489 0 0 0 1.273-.137l.737-.086.517-.061a110.34 110.34 0 0 0 1.234-.157c.264-.034.526-.07.789-.106l.425-.058c.346-.049.69-.1 1.032-.15.056-.01.112-.016.169-.025.398-.06.794-.122 1.189-.185l.352-.059c.275-.044.55-.09.822-.136l.445-.078c.239-.041.477-.083.713-.126a130.18 130.18 0 0 0 1.15-.214l.476-.091.664-.133.462-.094.668-.14.443-.095.701-.156.387-.087c.284-.065.565-.132.846-.198l.227-.054c.353-.084.704-.171 1.052-.26.098-.024.195-.05.293-.075.25-.064.498-.128.744-.193l.38-.102c.215-.058.43-.116.641-.176.136-.037.27-.076.406-.114a80.609 80.609 0 0 0 2.565-.772l.38-.121c.2-.065.397-.131.595-.197l.341-.115c.233-.079.46-.159.689-.24l.226-.078c.3-.108.598-.216.892-.326l.22-.083c.218-.082.436-.165.651-.249l.317-.126a51.622 51.622 0 0 0 .873-.354c.166-.07.332-.139.495-.209l.34-.146.473-.21c.11-.05.221-.099.33-.15.158-.07.313-.143.467-.216a37.744 37.744 0 0 0 .787-.379l.28-.138c.178-.09.353-.18.528-.271l.202-.104c.239-.126.474-.254.705-.381l.15-.085c.179-.101.357-.202.53-.303l.237-.141.422-.254.253-.158a28.76 28.76 0 0 0 1.58-1.066 20.25 20.25 0 0 0 .57-.429c.07-.052.139-.105.207-.159.124-.099.245-.198.366-.298.05-.041.103-.083.152-.125.169-.142.333-.285.492-.428.025-.023.048-.046.074-.068.132-.121.263-.243.39-.365l.152-.153c.096-.094.19-.19.283-.285l.163-.175c.083-.09.166-.179.246-.27.055-.06.107-.122.159-.183a11.208 11.208 0 0 0 .373-.454c.07-.09.137-.179.204-.269.046-.062.092-.124.136-.186.067-.093.13-.187.193-.281.04-.06.08-.118.118-.177.068-.105.13-.21.194-.316.028-.048.06-.097.087-.146.088-.153.17-.306.249-.46l.016-.035zm26.168-30.784c-3.327 10.152-29.147 10.783-57.673 1.408C51.395 34.509 30.966 18.68 34.292 8.528 37.618-1.625 63.439-2.255 91.965 7.12c28.525 9.374 48.953 25.203 45.628 35.356z" transform="rotate(-10 254.177 -340.565)"/>
        <path stroke="#FFF" stroke-width="2" d="M173.765 87.514c1.356 7.686-17.17 17.377-41.377 21.645-24.207 4.269-44.93 1.498-46.285-6.188-1.355-7.686 17.17-17.377 41.377-21.645 24.208-4.269 44.93-1.498 46.285 6.188z"/>
        <g stroke="#FFF" stroke-width="2">
            <path d="M196.228 54.775c-1.104 7.725-21.726 11.147-46.06 7.644-24.334-3.503-43.164-12.605-42.06-20.33 1.105-7.725 21.727-11.147 46.06-7.644 24.335 3.503 43.165 12.606 42.06 20.33z"/>
        </g>
    </g>
</svg>
